<?xml version="1.0" encoding="utf-8"?>
<!-- Generator: Adobe Illustrator 27.4.0, SVG Export Plug-In . SVG Version: 6.00 Build 0)  -->
<svg version="1.1" id="Layer_1" xmlns="http://www.w3.org/2000/svg" xmlns:xlink="http://www.w3.org/1999/xlink" x="0px" y="0px"
	 viewBox="0 0 300 300" style="enable-background:new 0 0 300 300;" xml:space="preserve">
<style type="text/css">
	.st0{fill:#FFFFFF;}
	.st1{fill-rule:evenodd;clip-rule:evenodd;fill:#A5B48D;}
</style>
<g>
	<g>
		<path class="st0" d="M58.2,177.8c0.7,0.4,1-0.3,1-0.3C58.5,177.1,58.5,177.1,58.2,177.8c-0.1-1.5-0.2-3-0.1-4.4
			c-0.5-0.4-1-0.8-3.4-3.3l-0.1,0l0.2,0.5c-10.5-9.7-15.1-21.2-14.9-32.5c0,0,0.1,0.1,0.1,0.1l0.3-0.7l-0.4-0.2
			c0.1-3.2,0.7-6.3,1.6-9.4l0.2,0l0.6-0.2c-0.5,0.1-0.7,0.1-0.8,0c6.8-22.9,33.6-42.3,70.8-39.8c19.3-2.8,35-10.1,43.7-25.7
			c0.4,0.5,0.8,1.3,1.7,1.8c0.3-0.7,0.3-0.7,1-0.3c0,0,0.7,0.4,0.4,1l0.7,0.4c1-0.3,0.3-0.7,0.6-1.4l-4.1-2.2c0.7-1.4,1.4-2.9,2-4.5
			c-0.1,0.2,0,0.5,0.5,0.8l0.3-0.7l-0.5-0.3c1.6-3.8,2.8-8,3.4-12.9c0,0.4,0.4,0.7,0.4,0.7c0.7,0.4,1.1-0.3,1.4-1
			c-0.5-0.2-1-0.2-1.4-0.2c0.3-2,0.6-4,0.8-6.1c4.1,2.4,7.2,4.6,9.5,6.5l-0.1,0.2l0.5,0.3c2,1.8,3.3,3.4,4.2,5l-0.2,0.4
			c-0.3,0.7,0.4,1,0.4,1c0.2,0.1,0.5,0.1,0.6,0.1c1.2,3,1.1,5.6,1.1,8.3l-0.9-0.5c0,0-0.3,0.7-0.6,1.4c0.7,0.4-0.3,0.6-0.3,0.6
			s0.4,1,1.1,1.4c0.3-0.7,1-0.3,2.1-0.6c0.7,0.4,0.7,0.4,0.3-0.7c-0.6-0.3-0.5-0.9-0.9-1.3c2.8-2.3,5.5-4.3,8.3-5.8l0.3,0.2
			c0.7,0.4,0.7,0.4,1-0.3l-0.5-0.3c7.5-3.8,14.9-3.9,22,1c-7.1,3.2-10.1,6.4-1.8,10c-14.8,16.2-18.6,32.9-13.3,50.1
			c0,0.1-0.1,0.2-0.2,0.4l0.4,0.2c3.5,10.8,10.7,21.8,21.1,33c2.3,2.9,4.4,5.9,6.2,9l0,0c4.6,7.4,8,15.2,9.9,22.8c0,0,0-0.1,0.1-0.2
			l0-0.1c1.3,4.8,2.1,9.5,2.4,14.1l-0.8-0.4c0,0-0.7-0.4-0.3,0.7l0.4,1l0.3-0.7c0.1-0.2,0.3-0.3,0.4-0.4c0.1,2,0.1,3.9,0,5.8
			c-0.3,0.1-0.3,0.4,0,0.6c-0.6,11.7-4.7,22.3-12.8,30.2l-0.3-0.1l0.1,0.1l0,0.2c-7.4,7.2-18.1,12.2-32.1,13.6
			c-0.4,0.5-0.8,1-1.1,1.5l-1.6-0.8c0,0-0.3,0.7,0.4,1c0,0,0.6,0.3,0.9-0.2c-5.6,7.2-14.3,11.4-24.8,10.8l0.1-0.2l0-0.1
			c-0.5,0.1-0.7,0.2-0.8,0.3c-10.4-0.8-22.6-6.1-35.8-17.8l0-0.1l0.3-0.5c-0.1,0.3-0.4,0.4-0.5,0.4c-3-2.7-6-5.6-9.1-8.9
			c-9.8-1.2-19.2-4.5-29.2-10.3l-0.1,0.1l0,0c-3.9-2.3-7.6-5-11-7.8c-0.1-0.1-0.1-0.3-0.2-0.5c0,0,0,0.1-0.1,0.2
			c-0.6-0.5-1.3-1.1-1.9-1.6l0-0.1l0.1-0.2c0,0-0.3-0.2-0.6-0.1C65.8,199.6,59.1,188.3,58.2,177.8z M67.1,195l0.7,0.4l0.3-0.7
			l-0.7-0.4C66.7,193.9,66.7,193.9,67.1,195z M71.5,199c0.1-0.4,0.1-0.8-0.4-1c-0.2,0.3-0.2,0.5-0.2,0.7c0,0.2,0.1,0.5,0.3,1
			C71.3,199.4,71.4,199.2,71.5,199z M46.7,158.3c0.3-0.7,0.3-0.7-0.4-1l-1,0.3c-0.3,0.7,0.4,1,0.4,1C46.4,159,46.7,158.3,46.7,158.3
			z M70.3,195.8l0.3-0.7l-0.7-0.4C69.9,194.8,69.5,195.5,70.3,195.8z M68.7,193.4l1-0.3C69.8,193.1,69,192.7,68.7,193.4z
			 M49.4,163.9l0.3-0.7l-0.7-0.4L49.4,163.9z M66.3,187.1c-0.3,0.7-0.3,0.7-1,0.3C65.6,186.7,66.3,187.1,66.3,187.1z M71.5,193.1
			c0,0-0.7-0.4-0.4-1c-0.3,0.7-1,0.3-1,0.3l-0.3,0.7C70.5,193.4,71.2,193.8,71.5,193.1z M54.7,170l1-0.3l-1.4-0.8l0.4,0.9l0.2,0.6
			C55.4,171.1,56.1,171.7,54.7,170z M54.2,169c0.6-1.3,2.1-0.6,3.1-0.9c-0.7-0.4-2.2-1.1-3.2-0.8c-0.7-0.4-1,0.3-1,0.3
			C53.5,168.6,54.2,169,54.2,169z M47.2,155.3c0,0,0.3-0.7-0.4-1c0,0-1.1,0.3-1.4,1l0.4,1C46.6,156.6,46.9,155.9,47.2,155.3z
			 M66.3,187.1l1-0.3C67,187.4,66.3,187.1,66.3,187.1z M80.6,206.3c-0.3,0.6-0.7-0.4-1,0.3C79.9,205.9,79.9,205.9,80.6,206.3z
			 M71.9,194.2l1-0.3l-0.7-0.4L71.9,194.2z M58.6,173c0,0,0.3-0.7,1-0.3c-0.4-1-1.1-1.4-1.1-1.4c-0.7-0.4-1.1,0.3-1.1,0.3
			C57.9,172.6,57.6,173.3,58.6,173z M69.9,188.9l-0.4-1c-0.3,0.7-0.3,0.7-1,0.3l0.4,1C68.9,189.3,69.6,189.6,69.9,188.9z
			 M75.2,196.7l-0.7-0.4l-0.3,0.6C74.9,197.4,74.9,197.4,75.2,196.7z M49.8,157.4c-0.7-0.4-1,0.3-1,0.3
			C49.1,157.1,49.1,157.1,49.8,157.4z M49.9,159.2l0.7,0.4l0.3-0.7l-0.7-0.4L49.9,159.2z M89.7,219.2l0.1-0.1
			c0.1-0.1,0.2-0.2,0.2-0.4c-0.2,0.4-0.3,0.6-0.5,0.5C90.1,219.6,90.7,220,89.7,219.2z M54.8,165.9l1-0.3l-0.7-0.4L54.8,165.9z
			 M60.1,173.7l-0.4-1.1C59.6,172.7,59.3,173.3,60.1,173.7z M69,185.1l-0.4-1.1l-0.7-0.4c-0.3,0.7-0.6,1.3,0.1,1.7
			C68,185.4,68.7,185.8,69,185.1z M49.8,157.4c1-0.3,0.6-1.4-0.1-1.7l-0.7-0.4c-0.3,0.7,0.4,1,0.4,1
			C49.1,157.1,49.1,157.1,49.8,157.4z M52.4,161.3l0.7,0.4c0,0,0.3-0.7-0.4-1L52.4,161.3z M53.1,161.7c0.7,0.4,0.7,0.4,0.4,1.1
			C52.8,162.4,53.9,162.1,53.1,161.7z M43.7,147.5l0.7,0.4l0.3-0.7l-0.7-0.4L43.7,147.5z M57.7,167.4l-0.3,0.7
			C57.3,168.1,58.1,168.5,57.7,167.4z M55.4,164.6l0.7,0.4l1.1-0.3l-1.5-0.7C55,163.5,54.7,164.2,55.4,164.6z M92.2,219.9l0.3-0.6
			C91.4,219.5,91.4,219.5,92.2,219.9z M73.9,191.9c0.3-0.7-0.1-1.7-0.1-1.7c-0.7-0.4-0.7-0.4-1,0.3
			C72.8,190.4,73.2,191.5,73.9,191.9z M54,158c-0.4-1.1-0.4-1.1-1.1-1.4c-0.3,0.7-0.6,1.3,0.1,1.7C53.7,158.6,54,158,54,158z
			 M73.5,189.1l0.3-0.7l-0.7-0.4C72.7,188.7,72.7,188.7,73.5,189.1z M61.6,170.3c0.7,0.4,0.4,1,0.4,1C61.3,171,61.3,171,61.6,170.3z
			 M63.2,172.8c-0.4-1-0.4-1-1.1-1.4C61.7,172.1,62.4,172.5,63.2,172.8z M56.4,162.6l0.7,0.4l0.3-0.7L56.4,162.6z M83.6,203.7l1-0.3
			l-0.7-0.4L83.6,203.7z M48.9,147.8l-0.7-0.4c0,0-0.7-0.4-1,0.3C47.9,148.1,47.9,148.1,48.9,147.8z M49.8,151.6l1-0.3
			C50.6,152,49.8,151.6,49.8,151.6z M73.6,185c0.3-0.7,0.3-0.7-0.4-1l-0.6,1.3C73.3,185.7,73.6,185,73.6,185z M79.4,195.6l0.3-0.7
			C79.7,194.9,79,194.5,79.4,195.6z M56.5,158.4l-1.4-0.8c-0.3,0.7,0.4,1.1,0.4,1.1C56.2,159.1,56.2,159.1,56.5,158.4z M56.6,160.2
			l0.7,0.4l0.3-0.7C57.3,160.5,56.6,160.2,56.6,160.2z M80.7,194.6c-0.3,0.7-0.3,0.7-1,0.3C80.4,195.3,80.4,195.3,80.7,194.6z
			 M58.8,163l0.7,0.4l-0.4-1L58.8,163z M75.1,187.5l1.4,0.8l0.3-0.7C76.2,187.2,75.4,186.8,75.1,187.5z M67.9,176.1l0.3-0.7
			l-0.7-0.4C67.5,175.1,67.2,175.8,67.9,176.1z M60.7,164.8l0.7,0.4l0.3-0.7L60.7,164.8z M83.4,198.5l1-0.3c0,0,0.3-0.7-0.4-1
			l-1.1,0.3C83.7,197.8,83.7,197.8,83.4,198.5z M91.2,208.5l-0.3,0.7C90.9,209.2,91.6,209.5,91.2,208.5z M84.8,199.3l0.7,0.4
			c0.7,0.4,1-0.3,1-0.3l-0.7-0.4L84.8,199.3z M67.3,171.7L68,172l0.3-0.7l-1.4-0.8C67.6,171,67.3,171.7,67.3,171.7z M67.5,170.1
			c0.2-0.1,0.3-0.3,0.1-0.8l-0.6,1.3C67.1,170.3,67.3,170.2,67.5,170.1z M44.4,134.5c-0.3,0.7-0.3,0.7-1.1,0.3
			C43.7,134.1,44.4,134.5,44.4,134.5z M71.4,176.3l0.3-0.7l-0.7-0.4C71,175.3,71.7,175.6,71.4,176.3z M64.8,163.6l-0.7-0.4l-0.3,0.7
			l0.4,1C65.2,164.7,65.2,164.7,64.8,163.6z M50.1,141.6l-0.7-0.4l-0.3,0.7C49.7,142.3,49.7,142.3,50.1,141.6z M62.7,162.5l1.4,0.8
			l0.3-0.7l-1.5-0.7L62.7,162.5z M46.5,133.9c-1,0.3-1,0.3-2.1,0.6C45.9,135.3,45.9,135.3,46.5,133.9z M91.7,203.7
			c0,0-0.7-0.4-0.4-1l-0.6,1.4C91,203.3,91.7,203.7,91.7,203.7z M75,178.2c-0.7-0.4-0.1-1.7-1.4-0.8l0.4,1
			C74.7,178.9,75,178.2,75,178.2z M57.5,150.6l-1.4-0.7c-0.3,0.6,0.4,1,0.4,1S57.2,151.3,57.5,150.6z M67,164.8
			c-0.3,0.7-1,0.3-1,0.3C66.3,164.4,66.3,164.4,67,164.8z M75.3,177.5l-0.3,0.7C75,178.2,75.7,178.6,75.3,177.5z M88.7,198.7
			l0.7,0.4l-0.4-1L88.7,198.7z M68,164.5l-0.7-0.4c-0.7-0.4-0.3,0.6-0.3,0.6S68.1,166.2,68,164.5z M87.5,195.6l0.7,0.4l0.3-0.7
			L87.5,195.6z M48.7,135l1.4,0.8l1-0.3l0.3-0.7c-0.7-0.4-1.8-0.1-1.8-0.1L48.7,135z M63.7,154.6l-1.5-0.7c0.7,0.4,0.4,1.1,0.4,1.1
			S63,154.3,63.7,154.6z M102,212.4l-0.7-0.4l-0.3,0.7C101.6,213.1,102,212.4,102,212.4z M51.2,137.2l1.4,0.8c-0.7-0.4-0.4-1-0.4-1
			S52,137.6,51.2,137.2z M64.9,157.8c0.3-0.7,0.6-1.3-0.4-1C64.5,156.7,65.2,157.1,64.9,157.8z M90.7,196.4l1-0.3l-0.7-0.4
			L90.7,196.4z M43.6,124.8l0.7,0.4c0,0,0.3-0.7-0.4-1.1L43.6,124.8z M67.4,158.2c0.6-1.4-1.1-1.4-1.1-1.4s-0.3,0.7-0.6,1.3
			C65.9,157.5,67,158.9,67.4,158.2z M61.4,151.8l1.4,0.8c0.3-0.7,0.3-0.7-0.4-1C62.5,151.5,61.7,151.1,61.4,151.8z M97,204
			c-0.7-0.4-0.3,0.6-0.3,0.6C96.8,204.3,96.9,204.1,97,204z M97,204l0.3-0.7C97.1,203.6,97,203.8,97,204z M72,165.7l0.7,0.4l-0.4-1
			L72,165.7z M66.2,156.8l-0.4-1C66.6,156.2,66.6,156.2,66.2,156.8z M68.5,159.7l0.7,0.4c0.7,0.4,0.7,0.4,1-0.3l-0.7-0.4
			C68.8,159,68.8,159,68.5,159.7z M110.9,223.8l0.7,0.4l0.3-0.6C112,223.6,111.3,223.2,110.9,223.8z M62.3,148l-0.7-0.4l-0.3,0.7
			C61.3,148.4,62,148.7,62.3,148z M54,137l0.7,0.4l0.3-0.7C54.8,137.4,54,137,54,137z M80.9,177.1l0.7,0.4c-0.7-0.4-0.7-0.4-0.4-1
			L80.9,177.1z M100.6,205.8l0.7,0.4l0.3-0.7L100.6,205.8z M65.6,150.6l-0.7-0.4l-0.3,0.7C65.3,151.3,65.3,151.3,65.6,150.6z
			 M115.3,227.8l0.3-0.6C115.3,227.8,114.9,226.8,115.3,227.8z M64.5,149.2l0.3-0.7C64.1,148.1,63.7,148.8,64.5,149.2z M66.9,149.7
			l0.7,0.4c0.3-0.6,0.3-0.6-0.4-1L66.9,149.7z M84.3,173.8l-0.7-0.4l-0.3,0.7C83.2,174.1,83.5,173.4,84.3,173.8z M68.1,151.1l1-0.3
			l-0.7-0.4L68.1,151.1z M77.1,164.2l0.3-0.7l-0.7-0.4C76.4,163.8,76.4,163.8,77.1,164.2z M71,154.3l2.2,1.1c0,0,0.7,0.4,1-0.3
			c1-0.3,0.3-0.7-0.4-1c0.3-0.7-0.4-1-1.1-1.4l-0.3,0.7c-0.7-0.4-1.8-0.1-1.8-0.1C70.3,153.9,71,154.3,71,154.3z M66.9,147.9
			l0.7,0.4l0.3-0.7C67.2,147.2,67.2,147.2,66.9,147.9z M123.5,229.6c-0.3,0.7-1.1,0.3-1.8-0.1C122,228.8,122.8,229.2,123.5,229.6z
			 M89.1,178.9l0.3-0.7C88.7,177.8,88.4,178.5,89.1,178.9z M69.7,149.4l0.3-0.7l-0.7-0.4C69,149.1,69.7,149.4,69.7,149.4z
			 M54.6,126.4l0.3-0.7l-0.7-0.4L54.6,126.4z M67.4,144.8l-0.4-1C66.7,144.5,66.7,144.5,67.4,144.8z M72.7,152.6L73,152
			C72.3,151.6,72,152.3,72.7,152.6z M94.3,184.9l0.7,0.4c0.3-0.7-0.4-1-0.4-1L94.3,184.9z M104.9,200.5c-0.3,0.7,0.4,1,0.4,1
			C104.6,201.2,104.6,201.2,104.9,200.5z M77.6,159.4l0.7,0.4c0.3-0.7,0.3-0.7,0.6-1.4c-0.7-0.4-1,0.3-1,0.3
			C76.9,159,77.6,159.4,77.6,159.4z M73.7,150.6l-0.3,0.7C74.1,151.7,73.3,151.3,73.7,150.6z M58.9,128.7l0.7,0.4
			c-0.4-1.1-0.4-1.1-1.1-1.4l-0.7-0.4C58.2,128.3,58.9,128.7,58.9,128.7z M124,226.5l-0.3,0.7C124,226.5,124.5,227.5,124,226.5z
			 M91.9,178.6l-0.4-1C91.1,178.3,91.1,178.3,91.9,178.6z M102.9,195.3l1-0.3l-0.7-0.4L102.9,195.3z M72.8,146.8
			c-0.3,0.7-1,0.3-1,0.3C72,146.4,72,146.4,72.8,146.8z M86.5,169.1l1-0.3l-0.7-0.4L86.5,169.1z M93.3,179.4l0.7,0.4l0.3-0.7
			L93.3,179.4z M84.1,164.5l0.3-0.7l-0.7-0.4C84.5,163.9,84.1,164.5,84.1,164.5z M78.5,155.7l0.7,0.4l0.3-0.7
			C79.2,156.1,78.5,155.7,78.5,155.7z M113.7,208.5l1.5,0.7l-0.4-1C114,207.8,114,207.8,113.7,208.5z M87.5,168.8l0.7,0.4l-0.4-1
			L87.5,168.8z M119,216.3l0.7,0.4l-0.4-1L119,216.3z M84.4,162.1l1-0.3c0.3-0.7-0.4-1.1-0.4-1.1c-0.7-0.4-0.7-0.4-1,0.3
			C84.7,161.5,84.7,161.5,84.4,162.1z M58.2,122.5l0.3-0.7C57.8,121.4,57.5,122.1,58.2,122.5z M87,166l0.3-0.7l-0.7-0.4L87,166z
			 M81.3,157.2l0.7,0.4l0.3-0.7L81.3,157.2z M79.8,154.7l0.3-0.7l-0.7-0.4C79.1,154.3,79.8,154.7,79.8,154.7z M72.2,142.3l0.7,0.4
			c-0.7-0.4-0.7-0.4-0.4-1l-0.7-0.4C71.8,141.3,72.5,141.6,72.2,142.3z M91.1,170.7c0.3-0.6,0.7,0.4,1-0.3l-0.4-1
			c-0.7-0.4-1,0.3-1.8-0.1C89.7,169.9,90.7,169.6,91.1,170.7z M78.6,151.5l0.7,0.4l-0.4-1L78.6,151.5z M75.1,145.7
			C75.1,145.7,75.1,145.7,75.1,145.7C75.1,145.7,75.1,145.7,75.1,145.7z M75.2,145.6c0,0-0.1,0.1-0.1,0.1
			C75.1,145.7,75.1,145.6,75.2,145.6z M83.5,158.3l0.7,0.4c0.3-0.6,0.3-0.6-0.4-1L83.5,158.3z M76.5,144.6l-0.7-0.4l-0.3,0.7
			c-0.1,0.3-0.2,0.5-0.3,0.7C76.2,145.2,76.9,145.6,76.5,144.6z M88.4,165.1c0,0,0.7,0.4,1-0.3l-2.2-1.1
			C86.9,164.3,87.7,164.7,88.4,165.1z M106.1,190.3l-1.4-0.8c-0.3,0.7-0.3,0.7,0.4,1C105.8,191,105.8,191,106.1,190.3z M74.9,142.1
			c0.1-0.4,0.1-0.8-0.4-1c-0.2,0.3-0.2,0.5-0.2,0.7c0,0.2,0.1,0.5,0.3,1C74.8,142.6,74.9,142.3,74.9,142.1z M75.8,144.2
			c-0.1-1.7-0.4-1-1.1-1.4C74.4,143.4,75.4,143.2,75.8,144.2z M106.4,189.6l-0.3,0.7C106.9,190.7,107.2,190,106.4,189.6z
			 M61.7,122.6l1-0.3c0.3-0.7-0.4-1-1.1-1.4l-1,0.3C61.4,121.5,61.4,121.5,61.7,122.6z M105.7,189.2l0.7,0.4c0.3-0.7-0.4-1-0.4-1
			L105.7,189.2z M88.2,161.6l0.3-0.7c0,0,0.3-0.7-0.4-1c-0.7-0.4-0.7-0.4-1,0.3C87.8,160.6,86.5,161.6,88.2,161.6z M82.5,152.8
			l0.3-0.7C81.8,152.4,81.8,152.4,82.5,152.8z M90.5,164.5l0.3-0.7c0.3-0.7,0.3-0.7-0.4-1l-0.3,0.7
			C90.1,163.4,90.8,163.8,90.5,164.5z M109,191.8l0.3-0.7l-0.7-0.4L109,191.8z M84,153.5l0.7,0.4c-0.4-1-0.1-1.7-0.1-1.7l-0.7-0.4
			C83.6,152.5,83.2,153.1,84,153.5z M106.7,187.2l0.3-0.7c0.7,0.4,0.7,0.4,1-0.3c-0.7-0.4-0.7-0.4-1.8-0.1
			C106.3,186.1,107,186.5,106.7,187.2z M82.7,148.7c-0.3,0.7-0.3,0.7-1.1,0.3C82,148.3,82,148.3,82.7,148.7z M79.3,144.4l0.3-0.7
			l-0.7-0.4L79.3,144.4z M149.8,250l0.7,0.4c0.3-0.7-0.4-1-0.4-1C149,249.6,149,249.6,149.8,250z M71.3,130.9l0.3-0.7l-0.7-0.4
			L71.3,130.9z M69.8,128.5l0.7,0.4c0.3-0.7-0.4-1-0.4-1L69.8,128.5z M129.9,217.8l0.7,0.4l0.3-0.7
			C131,217.5,130.2,217.2,129.9,217.8z M77.8,136.1c0,0-0.7-0.4-1,0.3C77.1,135.7,77.1,135.7,77.8,136.1z M72.2,128.9l0.3-0.7
			l-0.7-0.4L72.2,128.9z M96.1,164l0.7,0.4c0.3-0.7-0.4-1-0.4-1L96.1,164z M78.9,135.8c-0.3,0.7-1.1,0.3-1.1,0.3
			C78.2,135.4,78.2,135.4,78.9,135.8z M99.8,169.4l1-0.3l-0.7-0.4C99.4,168.3,99.1,169,99.8,169.4z M89.5,151.4
			c-0.3,0.7-0.3,0.7-1,0.3C88.5,151.7,89.2,152.1,89.5,151.4z M132.4,218.3l1.5,0.7c0.3-0.7-0.4-1-0.4-1L132.4,218.3z M108.9,182.5
			l1.4,0.8c0,0-0.3,0.7,0.4,1l0.7,0.4l-0.4-1c0,0-0.7-0.4-0.4-1c1.1-0.3,0.7,0.4,1.8,0.1l-1.4-0.7c-0.7-0.4-1.1-1.4-1.8-0.1
			C108.9,182.5,108.2,182.1,108.9,182.5z M123.9,202.1c0.3-0.7-0.4-1-0.4-1l-0.7-0.4c-0.3,0.7-0.3,0.7,0.1,1.7
			C122.9,202.4,123.2,201.7,123.9,202.1z M94.2,157.2c0-0.2-0.1-0.5,0-0.8c-0.1,0.2-0.3,0.4-0.5,0.6c-0.3,0.3-0.6,0.5-0.1,0.8
			C94.2,157.6,94.3,157.4,94.2,157.2z M115.2,190l1.5,0.7c0,0,0.3-0.6-0.4-1L115.2,190z M100.8,167.3l0.3-0.6l-0.7-0.4L100.8,167.3z
			 M101.9,168.8l0.7,0.4l0.3-0.7L101.9,168.8z M115.1,186.6l-0.7-0.4l-0.3,0.7C114.8,187.3,115.1,186.6,115.1,186.6z M88.6,147.5
			l1-0.3l-2.2-1.1C88.2,146.5,87.9,147.2,88.6,147.5z M142,228.4l0.7,0.4l-0.4-1L142,228.4z M86.6,142.3l-1.4-0.8c0,0-0.3,0.7,0.4,1
			C85.5,142.6,85.9,141.9,86.6,142.3z M79.8,133.7l0.7,0.4l0.3-0.7L79.8,133.7z M75.7,127.4l0.7,0.4c0.7,0.4,1-0.3,1.8,0.1l-0.7-0.4
			C76.7,127.1,76.7,127.1,75.7,127.4z M126.5,204.3l1-0.3l-0.7-0.4L126.5,204.3z M63.2,108.2l0.3-0.7l-0.7-0.4L63.2,108.2z
			 M99.9,163.5l0.3-0.6C99.2,163.2,99.2,163.2,99.9,163.5z M65.8,112.1l0.3-0.7l-0.7-0.4L65.8,112.1z M87.4,144.4l0.3-0.7
			C87.7,143.7,87,143.4,87.4,144.4z M123,198.3l0.7,0.4c0,0,0.3-0.7-0.4-1.1L123,198.3z M124.1,199.7l0.7,0.4c0.3-0.7-0.4-1-0.4-1
			l-0.7-0.4C124.5,199,124.1,199.7,124.1,199.7z M72.9,121.7l-0.4-1C73.2,121.1,73.2,121.1,72.9,121.7z M96,156.5l0.3-0.7
			C96,156.5,95.6,155.4,96,156.5z M90.2,144.2c0,0,0.7,0.4,0.3-0.7c-1.4-0.8-2.2-1.1-2.8,0.2C88.4,144.1,89.5,143.8,90.2,144.2z
			 M161.6,255.4l0.7,0.4l0.3-0.7C162.7,255.1,162.3,255.8,161.6,255.4z M67.1,109.4l0.7,0.4l0.3-0.7l-1.5-0.7c0,0-1.4-0.8-1.7-0.1
			c0,0.4,0.1,0.6,0.3,0.8C65.8,109.4,66.8,108.7,67.1,109.4z M126.7,201.9l0.3-0.7l-0.7-0.4L126.7,201.9z M122.1,194.5
			c0.7,0.4,0.4,1,0.4,1C121.8,195.1,122.5,195.5,122.1,194.5z M159.7,251.8l0.3-0.7l-0.7-0.4L159.7,251.8z M71.2,115.8l-0.7-0.4
			l-0.3,0.7C70.9,116.5,70.9,116.5,71.2,115.8z M113.8,181.7l0.7,0.4l0.3-0.7C114.8,181.4,114.1,181,113.8,181.7z M91.3,145.6
			l-1.4-0.8c0,0-0.3,0.7,0.4,1C90.3,145.9,90.6,145.2,91.3,145.6z M64.1,106.2l0.7,0.4l0.3-0.6C64.4,105.5,64.1,106.2,64.1,106.2z
			 M144.3,225.4l-1.4-0.8C142.3,226,143.3,225.7,144.3,225.4z M78.4,125.4c0.3-0.7-0.4-1-1.1-1.4l-0.3,0.7c-0.3,0.7-0.3,0.7,0.4,1
			C77.7,125.1,78.8,126.5,78.4,125.4z M103.1,164.4l0.7,0.4l-0.4-1L103.1,164.4z M152.3,237.1c0.3-0.7,0.3-0.7-0.4-1.1l-0.6,1.4
			C152,237.8,152.3,237.1,152.3,237.1z M136.1,214.3l0.7,0.4l0.3-0.7C136.4,213.7,136.1,214.3,136.1,214.3z M72.3,115.5
			c-0.3,0.7-0.3,0.7-1.1,0.3C72,116.2,72.3,115.5,72.3,115.5z M121.6,191.7l1.1-0.3c0.3-0.7-0.7-0.4-0.4-1c-0.7-0.4-1.1,0.3-1.8-0.1
			C120.2,190.9,120.9,191.3,121.6,191.7z M115.8,181.1c-0.3,0.7-1,0.3-1,0.3C115.1,180.7,115.1,180.7,115.8,181.1z M73.1,117.6
			l1.4,0.8c0.3-0.7-0.4-1.1-1.1-1.4L73.1,117.6z M89.4,142.1l0.3-0.7C89,141,88.6,141.7,89.4,142.1z M129.2,202.3l0.7,0.4l-0.4-1
			L129.2,202.3z M114,179.3l0.7,0.4l0.3-0.7C114.3,178.6,114,179.3,114,179.3z M126.8,197.8l0.7,0.4l0.3-0.7L126.8,197.8z
			 M64.2,102.1l1.5,0.7c-0.7-0.4-0.4-1-0.4-1S65,102.5,64.2,102.1z M97.2,152.1l0.7,0.4c0.3-0.7,0.3-0.7-0.4-1L97.2,152.1z
			 M147.2,226.9l1-0.3C147.5,226.2,146.8,225.8,147.2,226.9z M93.4,145l0.3-0.7L93,144C92.7,144.6,92.7,144.6,93.4,145z
			 M113.8,175.9l0.7,0.4c0.7,0.4,1-0.3,1-0.3l-2.2-1.1C113.4,174.8,113.1,175.5,113.8,175.9z M124.8,192.5l0.3-0.6l-0.7-0.4
			C124.1,192.1,124.8,192.5,124.8,192.5z M147.1,223.4l-1.4-0.8l-0.3,0.7C146,223.7,146.3,223.1,147.1,223.4z M77.8,120.9l0.7,0.4
			l0.3-0.7l-0.7-0.4L77.8,120.9z M120.2,185.1l0.7,0.4c0,0,0.7,0.4,1-0.3l-0.7-0.4L120.2,185.1z M116.1,178.7l0.3-0.7l-0.7-0.4
			L116.1,178.7z M128.2,196.8l0.7,0.4c-0.7-0.4-0.4-1-0.4-1L128.2,196.8z M158,240.1l-0.7-0.4l-0.3,0.7
			C157,240.4,157.3,239.7,158,240.1z M93.2,141.6c0.3-0.7,1-0.3,1.4-1l-0.7-0.4c0,0-0.7-0.4-1,0.3c-0.3,0.7-0.3,0.7-0.6,1.3
			C92.9,142.2,93.2,141.6,93.2,141.6z M106.5,162.8l1-0.3c0,0-0.4-1-1.1-1.4c-0.3,0.7-1,0.3-1,0.3
			C105.1,162.1,105.8,162.4,106.5,162.8z M66.7,102.6l2.2,1.1c0.3-0.7,0.3-0.7-0.4-1C68.5,102.6,67.8,102.3,66.7,102.6z
			 M100.7,152.2l-0.7-0.4c0,0-0.7-0.4-0.3,0.7C99.7,152.5,100.4,152.9,100.7,152.2z M154.3,234.8l0.7,0.4l0.3-0.7
			C154.6,234.1,154.6,234.1,154.3,234.8z M86.8,132.3l0.7,0.4l0.3-0.7C87.8,132,87.1,131.7,86.8,132.3z M131.8,198.7l0.7,0.4
			c0.3-0.7,0.3-0.7-0.4-1l-0.7-0.4C132.1,198,132.1,198,131.8,198.7z M101,149.8l0.3-0.7l-1,0.3l-0.7-0.4c0.7,0.4,0.7,0.4,0.4,1
			C99.9,150.1,100.7,150.5,101,149.8z M93.4,137.5l-0.7-0.4l-0.3,0.7C93,138.1,93.4,137.5,93.4,137.5z M121.1,181.3l0.3-0.7
			l-0.7-0.4L121.1,181.3z M123.8,185.3l0.3-0.7l-0.7-0.4C123.4,184.2,123,184.9,123.8,185.3z M78.3,116.2l0.3-0.7l-0.7-0.4
			L78.3,116.2z M71.1,104.8l1.4,0.8l-0.4-1C72.1,104.5,71.4,104.2,71.1,104.8z M100.2,147.7c-0.1,0.2-0.2,0.3-0.3,0.7
			C100,148.1,100.1,147.9,100.2,147.7z M74,108.1l-0.3,0.7C73.7,108.7,74.4,109.1,74,108.1z M118.8,176.8l0.7,0.4l-0.4-1
			L118.8,176.8z M118.7,175l1.5,0.7c-0.4-1-0.8-2.1-0.8-2.1c-0.4-1-1,0.3-1,0.3C118,174.7,116.9,175,118.7,175z M100.5,147.1
			c-0.2,0.3-0.2,0.5-0.3,0.7C100.3,147.6,100.3,147.4,100.5,147.1z M117.2,172.6l0.3-0.7l-0.7-0.4L117.2,172.6z M98.9,142.9
			l-0.7-0.4l-0.3,0.7C97.8,143.2,98.2,142.5,98.9,142.9z M142.5,210.2l0.3-0.7C142.1,209.1,141.8,209.8,142.5,210.2z M116.4,170.5
			l0.3-0.6C116.7,169.8,116,169.4,116.4,170.5z M100.4,145.4l0.7,0.4l0.3-0.7l-0.7-0.4L100.4,145.4z M108.3,155.3l-1.4-0.8
			c0.7,0.4,0.4,1,0.4,1S107.5,154.9,108.3,155.3z M116.7,169.8l1.5,0.7l0.3-0.7C117.8,169.5,116.7,169.8,116.7,169.8z M147.8,216.3
			l0.7,0.4l-0.4-1l-0.7-0.4L147.8,216.3z M124.3,180.5l0.7,0.4l0.3-0.7C124.6,179.8,124.6,179.8,124.3,180.5z M170.5,249.9
			c0.7,0.4,0.7,0.4,1.1,1.4c0,0,0.3-0.7,1-0.3c-0.7-0.4-0.7-0.4-0.4-1.1l-1.4-0.7C169.7,249.6,170.5,249.9,170.5,249.9z
			 M129.1,187.2l0.3-0.7l-0.7-0.4C128.7,186.2,128.4,186.8,129.1,187.2z M103,147.5l0.7,0.4c0,0,0.7,0.4,1-0.3l-0.4-1.1
			C103.6,146.2,103.3,146.9,103,147.5z M116.6,168.1l0.3-0.7C116.6,168.1,116.2,167,116.6,168.1z M113.8,160.7l-2.2-1.1l0.4,1
			C112.8,161,113.1,160.4,113.8,160.7z M111.6,157.9l-1.4-0.8c-0.3,0.7,0.4,1,0.4,1C111.2,158.6,111.6,157.9,111.6,157.9z M91,125.3
			l0.3-0.7c-1,0.3-1,0.3-1.8-0.1l-0.3,0.6C90,125.6,90,125.6,91,125.3z M73.3,100.1l0.3-0.7L72.9,99C72.9,99.1,72.6,99.7,73.3,100.1
			z M97.5,136.3l0.7,0.4c0,0,0.3-0.7-0.4-1L97.5,136.3z M114.1,160.1l-0.3,0.6C113.8,160.7,114.5,161.1,114.1,160.1z M117.6,166.1
			l0.3-0.7C117.9,165.4,116.9,165.7,117.6,166.1z M109.2,153.3l1-0.3l-0.7-0.4L109.2,153.3z M92.1,126.8l1-0.3l-0.7-0.4L92.1,126.8z
			 M145.2,206.5l0.3-0.7C144.5,206.1,144.5,206.1,145.2,206.5z M109.1,151.6l-0.4-1C108.7,150.5,108.4,151.2,109.1,151.6z
			 M120.8,168.6c-0.3,0.7,0.4,1,0.4,1C120.5,169.3,120.5,169.3,120.8,168.6z M174.7,250.5l0.7,0.4l-0.4-1L174.7,250.5z M130.3,182.8
			l0.3-0.7C129.9,181.8,129.6,182.4,130.3,182.8z M89,120.1l0.7,0.4l0.3-0.7l-0.7-0.4L89,120.1z M110.6,152.3l1.5,0.7l-0.4-1
			C111.6,152.1,110.9,151.7,110.6,152.3z M98.4,132.5l-0.3,0.7C98.4,132.5,98.8,133.6,98.4,132.5z M75.7,98.8l0.3-0.6l-0.7-0.4
			C74.9,98.5,75.7,98.8,75.7,98.8z M106.3,144.2l0.3-0.6c0.3-0.7-0.4-1.1-1.1-1.4l-0.7-0.4l0.4,1.1
			C105.6,143.9,105.6,143.9,106.3,144.2z M138.9,193.2l0.3-0.7l-0.7-0.4C138.5,192.1,137.1,193.1,138.9,193.2z M138.1,191.1
			c0,0,0.7,0.4,0.4,1.1C137.8,191.7,138.1,191.1,138.1,191.1z M156.3,219l0.3-0.7C155.9,218,155.9,218,156.3,219z M137.7,190
			c0.7,0.4,0.4,1,0.4,1S137.4,190.7,137.7,190z M86.4,110.3l-1.4-0.8c-0.3,0.7-0.3,0.7,0.4,1C85.4,110.6,85.7,110,86.4,110.3z
			 M144.7,196.2l1-0.3l-0.7-0.4c-0.8-2.1-1.8-1.8-3.6-1.9l-0.3,0.6l0.4,1C142.9,196.1,143.9,195.8,144.7,196.2z M99.2,128.8
			c-0.7-0.4-0.7-0.4-0.4-1c-0.7-0.4-1,0.3-1,0.3l0.4,1.1C98.2,129.1,98.5,128.4,99.2,128.8z M108.8,144.7l1.4,0.8
			c-0.7-0.4-0.7-0.4-0.4-1C109.8,144.4,109.5,145.1,108.8,144.7z M97.4,127l0.3-0.7C97.7,126.3,97,125.9,97.4,127z M134.6,183.3
			l0.7,0.4c0,0,0.7,0.4,1-0.3l-0.7-0.4C135.6,183,135.3,183.7,134.6,183.3z M156.5,216.7l0.3-0.7
			C156.1,215.6,155.8,216.3,156.5,216.7z M116.3,155.4l0.7,0.4c0.3-0.7,0.3-0.7-0.4-1L116.3,155.4z M112.2,149l0.7,0.4
			c0,0,0.7,0.4,1-0.3l-0.7-0.4L112.2,149z M101.8,131c0,0-0.7-0.4-1,0.3C101.1,130.6,101.8,131,101.8,131z M118.6,158.2l1.4,0.8
			c0.3-0.7,0.3-0.7-0.4-1C119.6,157.9,118.9,157.5,118.6,158.2z M77.3,95.5l1.5,0.7c0.7,0.4,1.4,0.8,1.8,0.1c0.6-1.4-1,0.3-1.4-0.8
			c0.3-0.7-0.4-1.1-0.4-1.1c-0.7-0.4-0.7-0.4-1,0.3L77.3,95.5z M99.5,126.4l-0.7-0.4c0.3-0.7,0.6-1.3-0.4-1c0,0-0.7-0.4-0.3,0.7
			l-0.3,0.7C98.4,126.7,99.2,127.1,99.5,126.4z M91.6,116.4l0.7,0.4c0,0,0.3-0.6-0.4-1L91.6,116.4z M102.1,130.3l-0.3,0.7
			C101.8,131,102.5,131.3,102.1,130.3z M181.4,251.5l0.3-0.6C181.7,250.8,181,250.4,181.4,251.5z M158.9,215.4l-0.7-0.4l-0.3,0.7
			C158.6,216.1,158.9,215.4,158.9,215.4z M99.8,125.7l-0.3,0.7C99.5,126.4,100.2,126.8,99.8,125.7z M117.2,151.6l-0.3,0.7
			c-0.3,0.7-0.3,0.7,0.4,1C117.6,152.7,117.6,152.7,117.2,151.6z M182.8,250.5c-0.3,0.7-0.3,0.7-1,0.3
			C182.5,251.2,182.8,250.5,182.8,250.5z M101.7,129.3l1.1-0.3l-0.7-0.4L101.7,129.3z M119.5,156.2l0.6-1.3l-0.7-0.4
			C119.1,155.1,119.1,155.1,119.5,156.2z M123.3,161.5l0.3-0.7C122.9,160.5,122.9,160.5,123.3,161.5z M149.1,200.2
			c0,0,0.3-0.6,1-0.3l-2.2-1.1C148.7,199.1,148.4,199.8,149.1,200.2z M107.6,135.7l0.3-0.7C108,135,107.2,134.7,107.6,135.7z
			 M129.2,166.3l-0.7-0.4l-0.3,0.7C128.1,166.6,128.4,165.9,129.2,166.3z M126.6,164.1l1-0.3l-0.7-0.4L126.6,164.1z M170.6,230.7
			l1-0.3C171.3,231.1,171.3,231.1,170.6,230.7z M148.1,194.6c0,0-0.7-0.4-0.4-1l-1,0.3l0.4,1.1C147.8,195.3,148.1,194.6,148.1,194.6
			z M83.3,97.8l0.3-0.7C82.9,96.8,82.6,97.5,83.3,97.8z M101.2,124.8l-0.4-1.1C100.7,123.7,100.4,124.4,101.2,124.8z M134.1,174.7
			l0.7,0.4l-0.4-1.1L134.1,174.7z M109,134.7c0.7,0.4,0.7,0.4,1-0.3l-0.4-1.1c-1,0.3-0.3,0.7-1.4,1L108,135
			C108.7,135.4,108.7,135.4,109,134.7z M87.1,103.1l0.3-0.6l-0.7-0.4C86.7,102.1,86.4,102.8,87.1,103.1z M97.7,118.8l1-0.3l-0.7-0.4
			C97,118.4,97,118.4,97.7,118.8z M99.5,120.6l0.7,0.4c-0.7-0.4-0.4-1-0.4-1l-2.2-1.1C97.8,120.5,98.8,120.2,99.5,120.6z
			 M100.4,122.7c0.7,0.4,0.4,1,0.4,1C100,123.3,100,123.3,100.4,122.7z M168.9,224.8l-0.7-0.4l-0.3,0.7
			C168.6,225.5,168.6,225.5,168.9,224.8z M149.6,197.1l0.3-0.6C149.2,196,149.2,196,149.6,197.1z M87.3,100.8c0,0,0.3-0.7-0.4-1
			c0,0-0.7-0.4-1,0.3l0.4,1C87,101.4,87,101.4,87.3,100.8z M164.4,219.1l0.7,0.4l-0.4-1L164.4,219.1z M106.2,127.4l0.3-0.7
			c-1,0.3-1.8-0.1-1.8-0.1l-1.4-0.8c0,0-0.3,0.7,0.4,1C104.4,127.3,105.1,127.7,106.2,127.4z M84.7,96.9l0.7,0.4l0.3-0.7
			C85.7,96.6,85.4,97.2,84.7,96.9z M117.7,146.8l1-0.3l-0.7-0.4L117.7,146.8z M113.1,139.4l0.7,0.4c0.7,0.4,0.7,0.4,1-0.3l-0.7-0.4
			C113.8,139.8,113.8,139.8,113.1,139.4z M138.9,178l0.3-0.7l-0.7-0.4C138.1,177.7,138.1,177.7,138.9,178z M155.1,202.5l1.4,0.7
			c1-0.3,0.3-0.6-0.4-1C155.5,201.8,155.5,201.8,155.1,202.5z M102.4,122.1l0.7,0.4c0,0,0.7,0.4,1-0.3l-0.7-0.4
			C102.7,121.4,102.7,121.4,102.4,122.1z M113,137.7l0.7,0.4c1-0.3,1-0.3,0.3-0.7C114,137.4,113.3,137,113,137.7z M141.4,180.2
			l1.1-0.3C142.1,180.6,142.1,180.6,141.4,180.2z M113,136l0.3-0.7l-0.7-0.4L113,136z M85.2,93.8l0.3-0.7
			C84.8,92.7,85.2,93.8,85.2,93.8z M101.5,118.3l0.7,0.4c0.3-0.7,0.3-0.7-0.4-1L101.5,118.3z M89.3,98.4l0.7,0.4l0.3-0.6
			C89.6,97.8,89.3,98.4,89.3,98.4z M157.5,201.2l0.3-0.7l-0.7-0.4C157.1,200.2,156.8,200.9,157.5,201.2z M116.9,138.9l0.7,0.4l1-0.3
			l-0.7-0.4C117.2,138.2,116.9,138.9,116.9,138.9z M93,102c0,0,0.7,0.4,0.4,1C92.7,102.7,92.7,102.7,93,102z M133.2,163.3l0.7,0.4
			l0.3-0.7l-0.7-0.4L133.2,163.3z M167.2,213l-0.7-0.4l-0.3,0.7C166.9,213.7,166.9,213.7,167.2,213z M112,130.4l0.7,0.4l0.3-0.7
			C112.3,129.7,112,130.4,112,130.4z M130.8,157.1c-0.3,0.7-0.3,0.7-1,0.3C130.1,156.7,130.8,157.1,130.8,157.1z M182,235l-0.3,0.7
			C181.7,235.7,182.4,236.1,182,235z M114.2,133.3l0.3-0.7C114.5,132.6,113.5,132.9,114.2,133.3z M172.6,220.8
			c0.7,0.4,0.7,0.4,0.4,1C172.2,221.5,173.3,221.2,172.6,220.8z M176.7,227.2l0.3-0.7C176.3,226.2,176,226.8,176.7,227.2z
			 M115.6,134l1.4,0.8l-0.4-1C116.7,133.7,116,133.4,115.6,134z M124.2,144.4l-1,0.3C123.9,145,124.6,145.4,124.2,144.4z M92.9,98.6
			l1.4,0.7l0.3-0.6L93.2,98L92.9,98.6z M115.4,130.6c0.1-0.4,0.1-0.8-0.4-1c-0.2,0.3-0.2,0.5-0.2,0.7c0,0.2,0.1,0.5,0.3,1
			C115.3,131,115.4,130.8,115.4,130.6z M140.5,168.8l0.6-1.3c-0.3,0.6-1,0.3-1,0.3L140.5,168.8z M104.5,113.9l0.3-0.7l-0.7-0.4
			L104.5,113.9z M111.3,124.2l1-2l-0.7-0.4c-0.3,0.6-1,0.3-0.6,1.3C110.9,123.2,110.6,123.8,111.3,124.2z M189.3,240.5l-0.7-0.4
			l-0.3,0.7C188.6,240.1,189.3,240.5,189.3,240.5z M138.6,165.3l0.3-0.7l-0.7-0.4C137.9,164.9,138.6,165.3,138.6,165.3z
			 M120.4,137.3l0.3-0.7l-0.7-0.4C119.6,137,120.4,137.3,120.4,137.3z M92.7,95.2l0.3-0.7C92.7,95.2,92.3,94.1,92.7,95.2z
			 M181.3,228.8l0.7,0.4c0,0,0.3-0.6-0.4-1L181.3,228.8z M116.1,129.2l1.5,0.7l-0.4-1C117.1,128.9,116.8,129.6,116.1,129.2z
			 M140.7,166.5l0.7,0.4l0.3-0.7L140.7,166.5z M143,169.3l0.7,0.4l0.3-0.7C143.3,168.6,143,169.3,143,169.3z M160.4,195.2
			c0.7,0.4,1.5,0.7,1-0.3l-2.2-1.1C158.9,194.4,159.7,194.8,160.4,195.2z M115.6,126.5l0.7,0.4l0.3-0.7c-0.4-1-0.7-0.4-1.1-1.4
			C115.2,125.4,115.9,125.8,115.6,126.5z M185.2,228.3l-0.7-0.4l-0.3,0.7C184.1,228.6,184.4,227.9,185.2,228.3z M187.8,232.2
			l-0.7-0.4l-0.3,0.6C187.5,232.9,187.5,232.9,187.8,232.2z M121.9,134l0.7,0.4c-0.7-0.4-0.7-0.4-0.4-1L121.9,134z M106.4,109.9
			l0.3-0.7l-0.7-0.4C105.6,109.5,106.4,109.9,106.4,109.9z M98.3,94.7l-2.2-1.1c0.7,0.4,0.4,1,0.4,1C96.9,95.7,97.9,95.4,98.3,94.7z
			 M168.9,203.8l0.7,0.4l0.3-0.7l-0.7-0.4L168.9,203.8z M157.1,185.1c0.7,0.4,0.7,0.4,0.4,1C157.8,185.4,157.1,185.1,157.1,185.1z
			 M154.5,181.2l0.3-0.6l-0.7-0.4C154.8,180.5,154.8,180.5,154.5,181.2z M103.2,103.2l0.7,0.4l0.3-0.7
			C104.3,102.9,103.6,102.5,103.2,103.2z M119.1,124.9c-0.3,0.7-0.7-0.4-1,0.3C118.3,124.5,118.3,124.5,119.1,124.9z M109.7,112.4
			l0.7,0.4l1-0.3l-0.7-0.4C110,111.8,110,111.8,109.7,112.4z M127.8,138.7c0.7,0.4,0.7,0.4,0.4,1
			C127.5,139.4,128.5,139.1,127.8,138.7z M196.7,241.9c0,0,0.3-0.6-0.4-1l-0.3,0.7l0.4,1C197.1,242.9,197.5,242.3,196.7,241.9z
			 M118.6,122.1l-0.7-0.4l-0.3,0.7C117.8,121.7,118.6,122.1,118.6,122.1z M100.4,95.9l0.7,0.4l0.3-0.6
			C100.7,95.2,100.4,95.9,100.4,95.9z M104.1,99.5l1.4,0.8c0.3-0.7-0.7-0.4-0.4-1l-0.7-0.4C103.4,99.1,104.1,99.5,104.1,99.5z
			 M137.1,149.5l0.3-0.7l-0.4-1l-0.3,0.6C136.7,148.4,136.4,149.1,137.1,149.5z M132.5,142c0,0,0.7,0.4,0.4,1
			C132.2,142.7,132.5,142,132.5,142z M129.9,138.1l0.7,0.4c0,0,0.3-0.7-0.4-1L129.9,138.1z M109,106.2l0.7,0.4l-0.4-1L109,106.2z
			 M105.9,101.3l0.7,0.4c0,0-0.7-0.4-0.4-1l-0.7-0.4C105.2,100.9,105.9,101.3,105.9,101.3z M155.2,175.7l0.3-0.7
			C154.8,174.7,154.5,175.3,155.2,175.7z M174.2,204.1l0.7,0.4c-0.7-0.4-0.4-1-0.4-1L174.2,204.1z M172.6,199.9l0.7,0.4l0.3-0.6
			C173.6,199.6,173.3,200.2,172.6,199.9z M106.2,98.9c0.3-0.7,1-0.3,1-0.3l-2.2-1.1C105.8,97.8,105.5,98.5,106.2,98.9z M164.9,187.5
			l0.3-0.6l-0.7-0.4C164.5,186.4,164.2,187.1,164.9,187.5z M112.6,108.1l0.7,0.4c-0.7-0.4-0.7-0.4-0.4-1L112.6,108.1z M115.6,111.3
			l0.3-0.7c-0.7-0.4,0.6-1.3-0.8-2.1l-0.3,0.6C115.2,110.3,114.1,110.6,115.6,111.3z M121.9,118.8c0,0-1.1-1.4-1.1,0.3l0.4,1
			C121.6,119.5,121.6,119.5,121.9,118.8z M126.4,124.6l-0.7-0.4l-0.3,0.7C125.4,124.9,125.7,124.2,126.4,124.6z M157.5,172.7
			l0.7,0.4c-0.7-0.4-0.4-1-0.4-1C156.8,172.4,156.8,172.4,157.5,172.7z M123,118.6l-0.7-0.4l-0.3,0.7
			C121.9,118.8,122.6,119.2,123,118.6z M132.9,135.5l0.7,0.4c0.7,0.4,0.7,0.4,1-0.3l-0.7-0.4C133.2,134.8,133.2,134.8,132.9,135.5z
			 M111.2,99.8l0.7,0.4c0.3-0.7-0.4-1.1-0.4-1.1c-0.7-0.4-1,0.3-1.7-0.1l-0.3,0.7C110.1,100.1,111.2,99.8,111.2,99.8z M131.7,132.3
			c-0.1-1.7-1.1-1.4-1.8-1.8C130.3,131.6,131,132,131.7,132.3z M121.5,117.8l0.7,0.4l0.3-0.7C122.6,117.5,121.8,117.1,121.5,117.8z
			 M115.7,107.2c0.3-0.6-0.4-1-1.1-1.4C114,107.1,115,106.8,115.7,107.2z M185.5,214.2l0.3-0.6l-0.7-0.4L185.5,214.2z M197.7,232.3
			l0.7,0.4c0,0,0.3-0.7-0.4-1L197.7,232.3z M187.3,214.3l-0.7-0.4l-0.3,0.7C187,215,187.3,214.3,187.3,214.3z M122.6,117.5l1-0.3
			C123.3,117.9,122.6,117.5,122.6,117.5z M111.1,98.1c-0.3,0.7-1,0.3-1,0.3C110.4,97.7,110.4,97.7,111.1,98.1z M105.8,92l0.7,0.4
			l0.3-0.7l-0.7-0.4L105.8,92z M182.4,207.5l0.3-0.7C181.7,207.2,181.7,207.2,182.4,207.5z M188.1,216.4l1-0.3l-0.7-0.4L188.1,216.4
			z M178.2,201.2l1-0.3l-0.7-0.4L178.2,201.2z M109.2,96.3l1-0.3l-1.4-0.8C108.5,95.9,109.2,96.3,109.2,96.3z M183.5,209l0.7,0.4
			l0.3-0.6C184.6,208.7,184.3,209.3,183.5,209z M118.3,109.4l0.3-0.7l-0.7-0.4L118.3,109.4z M122.1,114.7l1.4,0.8l-0.4-1
			C123.1,114.4,122.8,115.1,122.1,114.7z M108.7,93.5l0.3-0.6C108.3,92.5,108.3,92.5,108.7,93.5z M132.9,128l-0.7-0.4l-0.3,0.7
			C132.6,128.6,132.9,128,132.9,128z M120.4,110.5l-0.4-1C120.4,110.5,119.7,110.2,120.4,110.5z M127.3,120.8l0.7,0.4l-0.4-1
			L127.3,120.8z M114.3,98.9l-0.7-0.4l-0.3,0.7C113.5,98.5,114.3,98.9,114.3,98.9z M119.6,108.4c0.7,0.4,0.4,1,0.4,1
			S119.3,109.1,119.6,108.4z M151.5,157l1-0.3l-0.7-0.4L151.5,157z M134,129.4l0.3-0.6C133.6,128.3,133.6,128.3,134,129.4z
			 M127.8,117.8c0,0-0.3,0.7-1,0.3C127.1,117.4,127.8,117.8,127.8,117.8z M108.6,90.1l0.7,0.4c0.3-0.7,0.3-0.7-0.4-1L108.6,90.1z
			 M111.2,94l0.3-0.7C111.5,93.3,110.8,92.9,111.2,94z M116.1,100.7l0.3-0.7l-0.7-0.4L116.1,100.7z M128.9,117.5l-0.7-0.4l-0.3,0.7
			C127.8,117.8,128.5,118.1,128.9,117.5z M189.6,211.3l0.7,0.4c0,0,0.3-0.7-0.4-1L189.6,211.3z M129.3,118.5l-0.3,0.6
			C129.7,119.6,129.3,118.5,129.3,118.5z M172.9,185.8l0.3-0.7c0.7,0.4,1-0.3,1-0.3c-0.7-0.4-0.7-0.4-1.8-0.1
			C172.5,184.8,173.2,185.1,172.9,185.8z M191.5,213.1l0.7,0.4c-0.7-0.4-0.4-1.1-0.4-1.1L191.5,213.1z M175.8,187.3l-0.7-0.4
			c-0.7-0.4-0.3,0.7-0.3,0.7S175.5,188,175.8,187.3z M111,90.5l0.3-0.7C111.3,89.9,110.6,89.5,111,90.5z M124.7,111.1l0.7,0.4
			c0.7,0.4,0.7,0.4,1-0.3l-0.7-0.4C125,110.4,125,110.4,124.7,111.1z M178.1,191.9l1-0.3l-0.7-0.4L178.1,191.9z M164.1,170.3
			c0.3-0.6,0.6-1.3-0.4-1C163.7,169.2,164.4,169.6,164.1,170.3z M199.7,224.1l0.7,0.4l0.3-0.7C200,223.5,199.7,224.1,199.7,224.1z
			 M128.1,115.3l1.4,0.8c-0.7-0.4-0.4-1-0.4-1L128.1,115.3z M111.3,89.9l1.1-0.3C112.1,90.2,111.3,89.9,111.3,89.9z M206.1,233.4
			l0.3-0.7l-0.7-0.4L206.1,233.4z M116.9,95.2c0,0-0.3,0.7-1,0.3C116.2,94.9,116.9,95.2,116.9,95.2z M117.9,95c-0.3,0.7-1,0.3-1,0.3
			C117.2,94.6,117.2,94.6,117.9,95z M115,91.7l0.7,0.4l0.3-0.7C115.3,91.1,115,91.7,115,91.7z M132.3,115.9l-0.7-0.4l-0.3,0.7
			C132,116.6,132.3,115.9,132.3,115.9z M175.1,181.1l0.7,0.4l-0.4-1L175.1,181.1z M177.4,184l0.7,0.4l0.3-0.7L177.4,184z
			 M120.9,98.2l0.3-0.7l-0.7-0.4C120.2,97.8,120.2,97.8,120.9,98.2z M162.9,161.3l0.7,0.4l0.3-0.7L162.9,161.3z M141.3,127.3
			l0.3-0.7C141.6,126.6,140.9,126.2,141.3,127.3z M139.7,124.8l0.3-0.7C140.1,124.2,139.3,123.8,139.7,124.8z M141.9,126l-0.3,0.7
			C141.6,126.6,142.3,127,141.9,126z M144.2,130.5l0.7,0.4l0.3-0.6l-0.7-0.4L144.2,130.5z M140.1,124.2l1.4,0.8c0,0,0.3-0.7-0.4-1
			C141.1,123.9,140.4,123.5,140.1,124.2z M142.7,128l0.7,0.4c0.3-0.7,0.3-0.7-0.4-1L142.7,128z M178.3,181.9l-0.4-1
			C177.6,181.6,177.6,181.6,178.3,181.9z M170.6,167.8l-0.7-0.4l-0.3,0.7C169.6,168.1,169.9,167.4,170.6,167.8z M180.6,184.8
			l0.7,0.4l-0.4-1L180.6,184.8z M120.6,93l1-0.3l-0.7-0.4L120.6,93z M120.1,90.3l-0.7-0.4l-0.3,0.7
			C119.1,90.6,119.8,90.9,120.1,90.3z M142.2,125.3l0.7,0.4l-0.4-1L142.2,125.3z M126.6,101.2l0.7,0.4c0.3-0.7,0.3-0.7-0.4-1
			L126.6,101.2z M177.4,176.4c0.7,0.4,1-0.3,1-0.3c0.3-0.7-1.1-1.4-2.9-1.5C176.2,175,176.6,176,177.4,176.4z M148.5,131.1l-0.7-0.4
			l-0.3,0.6C148.1,131.8,148.1,131.8,148.5,131.1z M145.5,127.8l1.4,0.8c0,0-0.4-1-0.1-1.7C146.5,127.5,145.8,127.2,145.5,127.8z
			 M208.4,222.8l0.7,0.4l0.3-0.7l-0.7-0.4L208.4,222.8z M127.6,99.2c0,0,0.7,0.4,0.4,1C127.3,99.9,127.6,99.2,127.6,99.2z
			 M132.4,104.2l-0.7-0.4l-0.3,0.7C132.1,104.9,132.1,104.9,132.4,104.2z M152.5,134l-0.7-0.4l-0.3,0.7
			C152.2,134.7,152.2,134.7,152.5,134z M184.4,184.3l0.7,0.4l0.3-0.7C184.7,183.6,184.4,184.3,184.4,184.3z M217,233.2l1-0.3
			l-0.7-0.4C216.6,232.1,216.6,232.1,217,233.2z M130.1,99.6l0.3-0.7C129.4,99.3,129.4,99.3,130.1,99.6z M155.9,138.3l0.3-0.7
			l-0.7-0.4L155.9,138.3z M132.3,102.5l0.7,0.4l1-0.3l-0.7-0.4C133.4,102.2,132.6,101.8,132.3,102.5z M128.5,95.5l0.7,0.4
			c0,0,0.7,0.4,1.1-0.3C129.5,95.1,128.8,94.8,128.5,95.5z M136.3,105.4c0,0-0.7-0.4-1,0.3C135.6,105.1,135.6,105.1,136.3,105.4z
			 M151.6,130.2l0.3-0.7C151.9,129.5,151.2,129.2,151.6,130.2z M162.2,145.8l-0.4-1c0.3-0.7-0.4-1-0.4-1l-0.3,0.6
			C161.5,145.4,161.5,145.4,162.2,145.8z M156.5,136.9l0.7,0.4l0.3-0.7l-0.7-0.4C156.1,135.9,155.8,136.6,156.5,136.9z M153,129.2
			c-0.3,0.6-0.3,0.6-1,0.3C152.6,129.9,152.6,129.9,153,129.2z M136.7,104.7l-0.3,0.7C136.3,105.4,137.1,105.8,136.7,104.7z
			 M128,92.7l0.3-0.7l-0.7-0.4C127.6,91.6,127.3,92.3,128,92.7z M141.2,112.2l0.3-0.7C141.5,111.5,140.8,111.1,141.2,112.2z
			 M205.2,206.9l-1.5-0.7c-0.3,0.6,0.4,1,0.4,1S204.9,207.6,205.2,206.9z M158.7,138.1l0.7,0.4l0.3-0.7L158.7,138.1z M181.7,172.8
			l0.3-0.7l-0.7-0.4L181.7,172.8z M195.4,193.4l-0.4-1C194.7,193,194.7,193,195.4,193.4z M143.1,114l0.3-0.7
			C142.7,112.9,142.7,112.9,143.1,114z M196.5,194.8l0.7,0.4c0,0,0.3-0.7-0.4-1L196.5,194.8z M208.2,211.8l1-0.3l-2.2-1.1
			C207.8,210.8,207.8,210.8,208.2,211.8z M213.9,220.7l1-0.3C213.9,220.7,214.2,220,213.9,220.7z M166.9,149.1l0.3-0.7l-0.7-0.4
			L166.9,149.1z M147.8,117.3l-1.4-0.8c0,0,0.7,0.4,0.4,1C147.1,116.9,147.1,116.9,147.8,117.3z M180.8,169l0.7,0.4l0.3-0.7
			L180.8,169z M210.3,211.2c0,0-0.3,0.7-1,0.3C209.6,210.9,209.6,210.9,210.3,211.2z M218.7,225.7l0.7,0.4l0.3-0.7
			C219.8,225.4,219.5,226.1,218.7,225.7z M180.1,166.9l0.3-0.7C179.7,165.8,179.3,166.5,180.1,166.9z M138.7,104.2l0.7,0.4
			c0.3-0.7,0.3-0.7-0.4-1.1L138.7,104.2z M134.1,96.7c-0.3,0.7-0.3,0.7,0.4,1C133.8,97.4,133.8,97.4,134.1,96.7z M222.1,230l0.3-0.7
			l-0.7-0.4L222.1,230z M144.7,110.6c-0.4-1.1-0.4-1.1-1.1-1.4c0,0-0.7-0.4-0.3,0.7l0.4,1C143.9,110.2,144.7,110.6,144.7,110.6z
			 M135.3,98.2l1.5,0.8c-0.7-0.4-0.4-1.1-0.4-1.1L135.3,98.2z M150,120.1l1-0.3l-1.4-0.8C150.4,119.5,150,120.1,150,120.1z
			 M210.3,211.2l0.7,0.4c0.7,0.4,1-0.3,1.8,0.1l-1.4-0.8C211.3,210.9,210.6,210.6,210.3,211.2z M152.9,121.7l-0.3,0.7
			C152.9,121.7,153.3,122.7,152.9,121.7z M134,93.3l0.7,0.4L135,93C134.3,92.6,134.3,92.6,134,93.3z M163.9,138.3l0.7,0.4l0.3-0.6
			l-0.7-0.4L163.9,138.3z M141.1,102.9l1.4,0.8l-0.4-1L141.1,102.9z M144.9,108.2l0.3-0.7C145.2,107.5,144.2,107.9,144.9,108.2z
			 M210.4,205.4c0,0,0.3-0.7-0.4-1c0,0-0.7-0.4-1,0.3l0.4,1C209.6,205,209.6,205,210.4,205.4z M174.3,150.5l-1.4-0.7l0.4,1
			C173.6,150.1,173.6,150.1,174.3,150.5z M210.4,207.1l0.3-0.7l-0.7-0.4L210.4,207.1z M215.3,212.1l-0.4-1l-0.6,1.3
			C214.9,212.8,214.9,212.8,215.3,212.1z M154.7,121.7l0.7,0.4c0.3-0.7-0.4-1-0.4-1l-0.7-0.4C154,121.4,154.7,121.7,154.7,121.7z
			 M144.4,105.5l0.3-0.6C143.7,105.1,143.7,105.1,144.4,105.5z M150.1,114.3l1.4,0.8c0,0,0.7,0.4,0.3-0.7c0,0,0.3-0.7-0.4-1
			C151.5,113.3,150.4,113.6,150.1,114.3z M191,176l0.3-0.7l-0.7-0.4C190.3,175.6,190.3,175.6,191,176z M206.5,198.4l0.7,0.4
			c0.3-0.6-0.4-1-0.4-1L206.5,198.4z M164.3,131.8l-0.7-0.4l-0.3,0.7C164,132.5,164,132.5,164.3,131.8z M140.9,97.7
			c0.3-0.7,1-0.3,0.3-0.7L140.9,97.7z M136.7,91.4l1-0.3l-0.7-0.4L136.7,91.4z M133.6,84.7l-0.7-0.4l-0.3,0.7
			C132.5,85,133.2,85.4,133.6,84.7z M173.4,146.6l0.3-0.7l-0.7-0.4C172.7,146.3,172.7,146.3,173.4,146.6z M218.5,214.7l0.3-0.7
			l-0.7-0.4C218.1,213.7,217.8,214.3,218.5,214.7z M212.4,204.8l0.7,0.4l0.3-0.7L212.4,204.8z M194.2,176.8l0.6-1.3
			c-0.7-0.4-0.7-0.4-1,0.3L194.2,176.8z M152.1,112l1.4,0.8l-0.4-1C153.1,111.7,152.4,111.3,152.1,112z M214.2,204.9l0.7,0.4
			c0,0,0.7,0.4,1-0.3C215.2,204.6,215.2,204.6,214.2,204.9z M150.9,108.9l1.4,0.8c-0.7-0.4-0.4-1-0.4-1L150.9,108.9z M226.3,223
			l0.7,0.4c0.3-0.7-0.4-1-0.4-1l-0.7-0.4L226.3,223z M163.6,125.6c-0.7-0.4-1.4-0.8-1,0.3c-0.3,0.7,0.4,1,0.4,1
			S163.3,126.3,163.6,125.6z M201.9,183.4l-0.7-0.4l-0.3,0.7C201.6,184,201.9,183.4,201.9,183.4z M213,201.7l0.7,0.4l0.3-0.7
			L213,201.7z M219.4,211l0.3-0.7l-0.7-0.4C218.7,210.6,218.7,210.6,219.4,211z M173.4,139.1c0.3-0.7-0.4-1.1-0.4-1.1l-0.7-0.4
			c-0.6,1.3,0.4,1,0.1,1.7C173.1,139.8,173.1,139.8,173.4,139.1z M148.9,103.6l0.7,0.4c0.7,0.4,0.7,0.4,1.1-0.3l-0.7-0.4
			C149.9,103.3,149.2,102.9,148.9,103.6z M216.3,204.3L216,205C216,205,216.7,205.3,216.3,204.3z M163.6,125.6l0.7,0.4
			c0.7,0.4,0.7,0.4,1.8,0.1l-1.4-0.8C164.7,125.3,164,124.9,163.6,125.6z M199.3,179.5l0.3-0.7l-0.7-0.4L199.3,179.5z M212.9,200
			l2.9,1.5c-0.7-0.4-0.4-1-1.1-1.4l-1.4-0.8C212.2,199.6,212.9,200,212.9,200z M175.8,143.7l0.7,0.4l0.3-0.7
			C176.1,143,175.8,143.7,175.8,143.7z M197.7,177l0.3-0.7C197.3,175.9,198.1,176.3,197.7,177z M141.3,91.2l0.7,0.4l-0.4-1.1
			L141.3,91.2z M138.8,84.9c0,0,0.3-0.7-0.4-1.1l-1,0.3c-0.7-0.4-1,0.3-0.3,0.6C137.8,85.2,138.1,84.6,138.8,84.9z M176.9,145.1
			l0.7,0.4c0,0,0.3-0.7-0.4-1L176.9,145.1z M225,218.1l0.7,0.4l0.3-0.7L225,218.1z M135.5,82.4l0.3-0.6
			C135.9,81.7,134.8,82,135.5,82.4z M204.8,184.9l-0.7-0.4l-0.3,0.7C204.1,184.5,204.1,184.5,204.8,184.9z M217.4,205.7l0.7,0.4
			c-0.7-0.4-0.4-1-0.4-1L217.4,205.7z M187.3,157.3l-0.4-1l0.3-0.7c-1,0.3-1,0.3-1.4,1c0,0-1,0.3-0.3,0.7
			C185.5,157.2,186.3,157.6,187.3,157.3z M222.3,212.5l0.3-0.6C222.6,211.8,221.9,211.4,222.3,212.5z M206.3,185.6l-0.7-0.4
			l-0.3,0.7C205.2,185.9,205.5,185.2,206.3,185.6z M217.2,202.3c0.7,0.4,0.7,0.4,0.3-0.7c0,0-0.7-0.4-1.1,0.3l-0.3,0.7
			C216.9,202.9,217.2,202.3,217.2,202.3z M222.5,210.1l-1.5-0.7c-0.3,0.7-0.3,0.7,0.4,1C221.5,210.4,222.2,210.8,222.5,210.1z
			 M201.7,178.2l0.3-0.6c-0.3,0.6-1,0.3-1,0.3l-0.3,0.7C201.3,178.9,201.3,178.9,201.7,178.2z M223.6,211.5c-0.3,0.6-0.3,0.6-1,0.3
			C223.3,212.2,223.6,211.5,223.6,211.5z M167.2,127.5l0.3-0.7c0,0,0.3-0.6-0.4-1l-0.3,0.7C166.8,126.4,166.5,127.1,167.2,127.5z
			 M200.2,177.5l0.6-1.4l-1,0.3L200.2,177.5z M139.6,85.3l0.7,0.4c0,0,0.3-0.7-0.4-1L139.6,85.3z M182,149.5l0.6-1.3
			c-0.3,0.7-1,0.3-1,0.3C181.3,149.1,181.3,149.1,182,149.5z M211.9,194.5l-0.4-1.1C212.3,193.8,212.3,193.8,211.9,194.5z
			 M182.2,147.1c-0.4-1-0.4-1-1.1-1.4l-0.3,0.7c0.7,0.4,0.4,1,0.4,1C181.9,147.7,182.2,147.1,182.2,147.1z M191.4,161.9l0.7,0.4
			c-0.4-1-0.4-1-1.1-1.4l-0.7-0.4C190.7,161.5,190.7,161.5,191.4,161.9z M163.7,119.7l0.7,0.4l0.3-0.7
			C164.7,119.5,164,119.1,163.7,119.7z M200.8,176.1l1-0.3C201.6,176.5,200.8,176.1,200.8,176.1z M215.1,195.3
			c-0.3,0.7-0.7-0.4-1.1,0.3C214.4,194.9,214.4,194.9,215.1,195.3z M230,219l1-0.3l-0.7-0.4L230,219z M225.8,212.6l2.2,1.1
			c0.7,0.4,1-0.3,0.3-0.7l-2.2-1.1L225.8,212.6z M153.7,102.8l0.7,0.4c0.3-0.6,0.3-0.6-0.4-1L153.7,102.8z M168.5,124.8l1-0.3
			l-0.4-1C168.8,124.1,168.8,124.1,168.5,124.8z M145,89l1.4,0.8l-0.4-1C145.3,88.3,145.3,88.3,145,89z M190.8,157.4l0.3-0.7
			C190.4,156.4,190.4,156.4,190.8,157.4z M223.8,207.4l0.7,0.4l-0.4-1L223.8,207.4z M165.8,119.2l0.7,0.4l0.3-0.7
			C166.1,118.5,165.8,119.2,165.8,119.2z M161.6,112.8l1-0.3l-0.7-0.4L161.6,112.8z M205.6,179.4l0.7,0.4l0.3-0.7
			C205.9,178.7,205.6,179.4,205.6,179.4z M157,105.4l2.2,1.1c-0.7-0.4-1.1-1.4-1.8-1.8l-0.7-0.4C156.6,104.3,156.3,105,157,105.4z
			 M197.6,165.2c0-0.3,0-0.6-0.2-0.9c-0.5-0.2-0.5,0.1-0.5,0.6c0,0.3,0,0.5-0.1,0.8C197.3,165.8,197.6,165.6,197.6,165.2z
			 M145.6,87.6l0.7,0.4c0.3-0.6,0.3-0.6-0.4-1L145.6,87.6z M204.8,177.3l0.7,0.4l-0.4-1.1L204.8,177.3z M193,158.6l1-0.3
			C194,158.3,193.3,157.9,193,158.6z M176.9,131.7c-0.3,0.7-0.3,0.7-1,0.3C176.2,131.3,176.9,131.7,176.9,131.7z M160.2,106.2
			c-0.3,0.7-0.7-0.4-1,0.3C159.5,105.8,159.5,105.8,160.2,106.2z M167.1,118.2l0.7,0.4c0,0,0.3-0.7-0.4-1L167.1,118.2z M197.3,160.8
			l-0.7-0.4c-0.3,0.7-1,0.3-1,0.3l0.4,1C197.7,161.9,196.6,160.4,197.3,160.8z M227.4,209.3l0.3-0.7
			C227.7,208.6,227,208.2,227.4,209.3z M173.6,127.4l0.3-0.7l-0.7-0.4C173.1,126.4,172.8,127,173.6,127.4z M169.4,121.1l0.7,0.4
			l0.3-0.7l-0.7-0.4L169.4,121.1z M166.3,116.1c0.7,0.4,0.7,0.4,1-0.3c0.3-0.7-0.4-1-1.1-1.4l-1,0.3
			C165.9,115,165.6,115.7,166.3,116.1z M195.8,158.3L195,158c0,0-0.7-0.4-1,0.3C194,158.3,194.7,158.6,195.8,158.3z M192.5,155.8
			l0.3-0.6C192.8,155.1,192.1,154.7,192.5,155.8z M156,98.1c0,0-0.3,0.7-1,0.3C155.3,97.7,155.3,97.7,156,98.1z M142.4,79.2l0.7,0.4
			c-0.7-0.4-0.4-1.1-0.4-1.1l-0.7-0.4C141.7,78.9,141.7,78.9,142.4,79.2z M227.7,208.6l1.5,0.7c0,0,0.3-0.7-0.4-1L227.7,208.6z
			 M151.9,93.4l0.3-0.7C151.5,92.4,151.2,93,151.9,93.4z M192.8,155.1l1.4,0.8c0.3-0.7-0.4-1.1-0.4-1.1S193.1,154.4,192.8,155.1z
			 M220.8,196.6c0.7,0.4,0.7,0.4,0.4,1C221.5,197,220.8,196.6,220.8,196.6z M190.9,151.6l0.3-0.7c0,0,0.3-0.7-0.4-1l-0.3,0.7
			L190.9,151.6z M199.9,164.7l0.7,0.4c1-0.3,1.4,0.8,2.5,0.5l-3.6-1.9C199.5,163.7,199.2,164.3,199.9,164.7z M231.4,212.2l0.7,0.4
			c0,0,0.3-0.7-0.4-1L231.4,212.2z M214.7,186.7l0.7,0.4l0.3-0.6L214.7,186.7z M181.2,133.9l-0.7-0.4c-0.7-0.4,0,0-0.3,0.7
			C180.5,133.6,180.5,133.6,181.2,133.9z M217.4,190.6l0.7,0.4c0.7,0.4,0.7,0.4,1.7,0.1l-0.7-0.4C218.4,190.3,218,189.3,217.4,190.6
			z M177.2,129.3l0.3-0.7C176.8,128.3,176.8,128.3,177.2,129.3z M193.4,153.8l0.3-0.6C193.8,153.1,193,152.7,193.4,153.8z
			 M178.3,130.7l0.3-0.7l-0.7-0.4L178.3,130.7z M198.3,160.5l0.7,0.4c0.4,1,0.7,0.4,1-0.3l-0.7-0.4
			C198.7,159.8,198.7,159.8,198.3,160.5z M222.5,195l-0.7-0.4l-0.3,0.7C221.5,195.3,221.7,194.6,222.5,195z M175.9,126.2l0.3-0.7
			c0,0-0.7-0.4-0.4-1l-0.3,0.6C175.2,125.8,175.2,125.8,175.9,126.2z M194.8,152.8l-0.7-0.4l-0.3,0.7
			C193.8,153.1,194.5,153.5,194.8,152.8z M193.7,151.4c0.7,0.4,0.4,1,0.4,1C193.3,152,193.3,152,193.7,151.4z M170.2,115.6
			c-0.3,0.7-0.3,0.7,0.4,1C169.8,116.3,169.8,116.3,170.2,115.6z M175.5,123.4l0.3-0.7c0,0,0.3-0.7-0.4-1l-0.3,0.7
			C174.7,123,174.7,123,175.5,123.4z M156.1,94l0.7,0.4l-0.4-1l-0.7-0.4L156.1,94z M217.1,185.4l0.3-0.7
			C216.4,185.1,216.4,185.1,217.1,185.4z M227,200.7l0.3-0.7l-0.4-1l-0.3,0.7C227.3,200,227,200.7,227,200.7z M228.1,202.1l1-0.3
			l-0.4-1c-0.7-0.4-0.7-0.4-1.8-0.1C227.7,201,227.4,201.7,228.1,202.1z M146.5,76.3l-1.4-0.7l0.4,1C145.4,76.7,145.8,76,146.5,76.3
			z M196.3,153.6l0.7,0.4c0,0-0.7-0.4-0.4-1L196.3,153.6z M178.7,126l-0.4-1C179.1,125.3,178.7,126,178.7,126z M179.9,127.4
			c0.3-0.6-0.4-1-1.1-1.4C179.1,127,179.1,127,179.9,127.4z M226.4,196.2l-0.7-0.4l-0.3,0.6C226.1,196.8,226.4,196.2,226.4,196.2z
			 M221.2,190.1l1-0.3c-0.7-0.4-0.7-0.4-0.4-1l-1,0.3C220.5,189.7,220.5,189.7,221.2,190.1z M195,150.4l0.7,0.4
			c0.3-0.7,0.3-0.7-0.4-1.1l-0.7-0.4C195.3,149.7,195.3,149.7,195,150.4z M206,167.1l0.7,0.4l0.3-0.7l-0.7-0.4L206,167.1z
			 M160.1,96.9c0,0,0.7,0.4,0.4,1C159.8,97.6,159.8,97.6,160.1,96.9z M182.5,131.3l0.3-0.7l-0.7-0.4L182.5,131.3z M190.4,143
			l1.5,0.7l0.3-0.7C191.8,142,191.5,142.7,190.4,143z M183.2,131.6l1-0.3l-0.7-0.4L183.2,131.6z M185.1,133.4l0.7,0.4l-0.4-1
			L185.1,133.4z M223.7,190.6l0.3-0.7c-0.7-0.4-1,0.3-1,0.3c-0.3,0.7,0.4,1,0.4,1C224.1,191.6,224.4,190.9,223.7,190.6z M213.5,176
			c1-0.3,0.3-0.7,0.3-0.7l-0.7-0.4L213.5,176z M218.4,182.7l0.7,0.4l0.3-0.7C219.4,182.5,218.7,182.1,218.4,182.7z M220.6,185.6
			l-0.4-1.1C219.9,185.2,219.9,185.2,220.6,185.6z M162.6,97.4l0.7,0.4c0.3-0.7,0.3-0.7-0.4-1l-0.7-0.4
			C162.2,96.3,161.9,97,162.6,97.4z M221.7,187l0.7,0.4c0,0,0.3-0.7-0.4-1L221.7,187z M175,114.8c0.3-0.7,0.6-1.3-0.4-1L175,114.8z
			 M205,159.8l0.7,0.4c0,0,0.3-0.6-0.4-1L205,159.8z M170.5,107.4l0.3-0.7l-0.7-0.4L170.5,107.4z M173.4,110.6l-0.3,0.7
			C173.1,111.3,173.8,111.6,173.4,110.6z M193.6,142.1l0.3-0.6l-0.7-0.4L193.6,142.1z M222.4,185.7l0.7,0.4l-0.4-1L222.4,185.7z
			 M224.9,187.9l-0.7-0.4c-0.3,0.7,0.4,1,0.4,1S225.4,188.9,224.9,187.9z M227.2,190.7l-0.3,0.7
			C227.6,191.8,227.2,190.7,227.2,190.7z M210.2,165.9l1-0.3l-1.4-0.8C210.5,165.2,210.2,165.9,210.2,165.9z M168.9,103.2l0.3-0.7
			C169.2,102.5,168.4,102.1,168.9,103.2z M226.8,189.7c0.7,0.4,0.4,1,0.4,1C226.5,190.3,226.8,189.7,226.8,189.7z M159.7,88.3
			l0.7,0.4c0.7,0.4,0.7,0.4,1-0.3l-0.7-0.4C160,87.6,160,87.6,159.7,88.3z M170.2,102.2c-0.3,0.7-1,0.3-1,0.3
			S169.9,102.8,170.2,102.2z M183.9,124.5l0.7,0.4c0,0,0.7,0.4,1-0.3l-0.7-0.4C185,124.2,184.7,124.8,183.9,124.5z M149.4,72
			l0.7,0.4c0.3-0.7-0.4-1-0.4-1L149.4,72z M186.6,128.4l0.7,0.4c0,0-0.7-0.4-0.4-1L186.6,128.4z M155,77.4l-1.4-0.8l-0.3,0.7
			C152.9,78,154.6,78.1,155,77.4z M166.8,97.9l0.3-0.7C167.2,97.2,166.4,96.8,166.8,97.9z M210.8,164.5l0.7,0.4
			c0.3-0.7,0.3-0.7-0.4-1L210.8,164.5z M179.6,114.6l-0.7-0.4l-0.3,0.7C179.3,115.3,179.6,114.6,179.6,114.6z M211,162.1l-0.7-0.4
			l-0.3,0.6C210.7,162.8,211,162.1,211,162.1z M168.2,96.9l-0.7-0.4l-0.3,0.7C167.9,97.6,167.9,97.6,168.2,96.9z M189.1,130.5l1-0.3
			c0,0-0.7-0.4-0.4-1L189.1,130.5z M174.7,107.9c0.7,0.4,0.4,1,0.4,1S174.4,108.6,174.7,107.9z M214.1,167.1l1-0.3l-0.7-0.4
			L214.1,167.1z M194.8,137.7l0.7,0.4l0.3-0.6C195.8,137.4,195.1,137,194.8,137.7z M209.1,158.6l-0.4-1
			C208.7,157.5,208.4,158.2,209.1,158.6z M190.9,130.6l1.4,0.8l-0.4-1C191.9,130.3,191.2,129.9,190.9,130.6z M152.2,71.8l-0.4-1
			C151.8,70.8,151.5,71.4,152.2,71.8z M151.8,69l-0.3,0.7c0,0-0.3,0.7,0.4,1.1C151.8,70.8,152.1,70.1,151.8,69z M174.5,104.4
			c0.7,0.4,0.4,1,0.4,1S174.2,105.1,174.5,104.4z M157.8,78.9l0.7,0.4l0.3-0.7C158.5,79.3,157.8,78.9,157.8,78.9z M171.5,99.5
			l0.7,0.4l-0.4-1L171.5,99.5z M235.1,194.9c0,0,0.7,0.4,0.4,1C234.8,195.5,235.1,194.9,235.1,194.9z M220.3,172.9l0.3-0.6
			C219.9,171.8,219.9,171.8,220.3,172.9z M231.4,189.5l0.7,0.4c0.7,0.4,0.7,0.4,1-0.3l-0.7-0.4C231.7,188.9,231.7,188.9,231.4,189.5
			z M218.8,170.4l0.7,0.4l0.3-0.7l-0.7-0.4L218.8,170.4z M176,105.2l0.7,0.4c0.3-0.6-0.4-1-0.4-1L176,105.2z M223.3,176.1l0.3-0.7
			l-0.7-0.4L223.3,176.1z M206.6,150.6l1-0.3l-0.7-0.4L206.6,150.6z M160.7,80.4l0.7,0.4l0.3-0.7c0.3-0.7-0.1-1.7,0.2-2.4
			c-0.3,0.7-1,0.3-1,0.3C160.6,78.7,161,79.8,160.7,80.4z M222.5,174l1-0.3l-1.4-0.8C221.8,173.6,222.5,174,222.5,174z M201.9,141.5
			l0.7,0.4l1-0.3l-0.7-0.4c-0.7-0.4-0.4-1-1.1-1.4c-0.3,0.7-1,0.3-1,0.3C200.5,140.7,201.2,141.1,201.9,141.5z M213.6,156.8
			c0.3-0.7-0.7-0.4-1.1-1.4c-0.3,0.7-1.4,1-0.6,1.4C211.5,157.3,213.3,157.4,213.6,156.8z M187.4,117.1l0.3-0.7
			c-0.7-0.4-1.5-0.7-1.8-0.1c-0.7-0.4-1,0.3-0.3,0.7C186.4,117.4,187.1,117.7,187.4,117.1z M232.3,187.5l0.3-0.7
			C232.3,187.5,231.9,186.5,232.3,187.5z M182.6,112l0.3-0.7C182.9,111.5,182.8,111.7,182.6,112z M195,127.7l-1.4-0.8l-0.3,0.6
			C193.9,128,193.9,128,195,127.7z M209.5,152.1l0.7,0.4c0.3-0.7-0.4-1-1.1-1.4C208.8,151.7,208.8,151.7,209.5,152.1z M159.8,76.6
			l0.7,0.4l0.3-0.7L159.8,76.6z M183.2,110.7c0,0-1,0.3-0.3,0.6C183,111.2,183.1,111,183.2,110.7z M184.3,110.4
			c-0.3,0.7-0.3,0.7-1,0.3C184,111.1,184.3,110.4,184.3,110.4z M167.6,84.9l-0.7-0.4l-0.3,0.7C166.6,85.2,166.9,84.5,167.6,84.9z
			 M199.5,135.2l0.7,0.4l0.3-0.6L199.5,135.2z M208.5,146.6l-0.7-0.4l-0.3,0.7C208.2,147.2,208.2,147.2,208.5,146.6z M180.5,105.1
			l0.7,0.4c0.3-0.7,0.3-0.7-0.4-1L180.5,105.1z M228.7,178.1l1.1-0.3l-0.7-0.4L228.7,178.1z M218.3,160.1c-0.3,0.7-1,0.3-1,0.3
			C217.6,159.7,217.3,160.4,218.3,160.1z M189.2,117.1l1-0.3c0,0,0.3-0.7-0.4-1L189.2,117.1z M231.6,181.3l0.3-0.7l-0.7-0.4
			C230.9,180.9,231.6,181.3,231.6,181.3z M185.7,111.1l0.3-0.6C185.3,110.1,185,110.8,185.7,111.1z M205.8,140.9c0,0,0.7,0.4,1-0.3
			c1-0.3-0.4-1.1-0.4-1.1c-0.7-0.4-1.4-0.8-1.7-0.1C204.7,139.5,205.1,140.5,205.8,140.9z M211,147l-0.7-0.4l-0.3,0.7
			C210.7,147.7,211,147,211,147z M165.6,79.6l0.7,0.4c0.3-0.7-0.4-1-0.4-1L165.6,79.6z M212.2,150.2l0.3-0.7
			C211.8,149.1,211.8,149.1,212.2,150.2z M161,72.2l0.3-0.7l-0.7-0.4C160.3,71.8,161,72.2,161,72.2z M194,122.2l0.3-0.7l-0.7-0.4
			C193.3,121.8,194,122.2,194,122.2z M192.1,118.6l1-0.3l-0.7-0.4L192.1,118.6z M204.2,136.7l0.7,0.4c0,0-0.7-0.4-0.4-1L204.2,136.7
			z M162.5,73l0.7,0.4c0.3-0.7-0.4-1.1-0.4-1.1l-0.7-0.4C161.7,72.6,162.5,73,162.5,73z M216.9,153.5l-1.4-0.8l0.4,1
			C215.9,153.8,216.2,153.1,216.9,153.5z M228,171.8l0.7,0.4l0.3-0.7C228.3,171.2,228.3,171.2,228,171.8z M233.4,179.4
			c0,0.1,0,0.2-0.1,0.2l0,0C233.3,179.6,233.4,179.5,233.4,179.4z M187.8,110.5l0.7,0.4l0.3-0.7L187.8,110.5z M212.5,147.8l1-0.3
			l-0.7-0.4L212.5,147.8z M187.7,108.8l0.7,0.4l0.3-0.7L187.7,108.8z M186.5,105.7l0.7,0.4c0.3-0.6-0.4-1-0.4-1L186.5,105.7z
			 M189.2,109.6l0.7,0.4l0.3-0.7L189.2,109.6z M163.9,67.9l-2.1-1.1l-0.3,0.7C162.5,67.1,163.6,68.6,163.9,67.9z M173.6,85.5
			l0.7,0.4c0.3-0.7,0.3-0.7-0.4-1L173.6,85.5z M190.6,110.3l0.7,0.4l0.3-0.7C190.9,109.7,190.6,110.3,190.6,110.3z M191.7,111.8
			l1.4,0.8c0,0,0.3-0.7-0.4-1L191.7,111.8z M193.6,113.6l-0.4-1C193.2,112.5,192.8,113.2,193.6,113.6z M165.3,66.9l-1.4-0.8
			c-0.7-0.4,0,0-0.3,0.7c0.7,0.4,0.7,0.4,0.4,1C165,67.6,165,67.6,165.3,66.9z M223.1,157.5l0.3-0.7l-0.7-0.4L223.1,157.5z
			 M174.6,83.5l0.7,0.4c0,0,0.3-0.7-0.4-1L174.6,83.5z M172.1,77.2l-0.7-0.4l-1,0.3C171.1,77.5,171.8,77.9,172.1,77.2z M179.8,91.3
			l-0.4-1C180.2,90.6,180.2,90.6,179.8,91.3z M223.4,156.9L223.4,156.9L223.4,156.9L223.4,156.9z M182.4,93.5l0.3-0.7l-0.7-0.4
			C182.7,92.8,182.4,93.5,182.4,93.5z M161.1,58.8c0.7,0.4-0.3,0.7,0.4,1C160.7,59.5,160.7,59.5,161.1,58.8z M183,92.1l0.3-0.7
			l-0.7-0.4C182.6,91.1,182.3,91.7,183,92.1z M170.8,70.6l0.3-0.7l-0.7-0.4C170.4,69.6,171.1,69.9,170.8,70.6z M181.4,86.2l0.7,0.4
			l0.3-0.7C181.7,85.5,181.4,86.2,181.4,86.2z M175.6,77.3l0.7,0.4l0.3-0.7C176,76.7,175.6,77.3,175.6,77.3z M181.3,84.5l0.7,0.4
			l0.3-0.7L181.3,84.5z M186.6,92.3l0.3-0.6l-0.7-0.4C185.8,91.9,185.8,91.9,186.6,92.3z M170.6,67.2l1.1-0.3
			C171.6,66.9,170.9,66.5,170.6,67.2z M165.6,58.7l0.7,0.4l0.3-0.6c0.3-0.7,0.6-1.4-0.1-1.7c-0.3,0.7-0.3,0.7-0.6,1.3L165.6,58.7z
			 M169.4,64l-0.4-1C169.7,63.3,169.4,64,169.4,64z M171.6,66.9l1-0.3l-0.7-0.4L171.6,66.9z M169.3,62.3l0.7,0.4l0.3-0.6L169.3,62.3
			z M171.5,65.1c0.7,0.4,0.4,1,0.4,1S171.2,65.8,171.5,65.1z M168.5,60.2l0.3-0.7l-0.7-0.4L168.5,60.2z M166.6,56.7l0.3-0.7
			C165.8,56.3,165.8,56.3,166.6,56.7z M184.8,84.6l0.7,0.4c-0.4-1-0.1-1.7-0.1-1.7l-0.7-0.4C184.4,83.6,184.1,84.3,184.8,84.6z
			 M174.9,69.4l0.3-0.7l-0.7-0.4L174.9,69.4z M185.9,86.1l1-0.3l-0.7-0.4L185.9,86.1z M166.9,56l0.7,0.4l0.3-0.7L166.9,56z
			 M171.8,62.7l0.3-0.7C172.1,62.1,171.4,61.7,171.8,62.7z M172.4,61.4l-0.3,0.7C172.1,62.1,172.8,62.5,172.4,61.4z M173.2,63.5
			l0.7,0.4c0.3-0.6,0.3-0.6-0.4-1L173.2,63.5z M190.2,88.3l0.7,0.4c0,0,0.3-0.7-0.4-1L190.2,88.3z M175.1,65.3l0.7,0.4l-0.4-1
			L175.1,65.3z M192.9,92.2l0.7,0.4c0.3-0.6-0.4-1-0.4-1L192.9,92.2z M167.7,50.5l-1.4-0.8l-0.3,0.7
			C166.6,50.8,166.6,50.8,167.7,50.5z M166.1,48c0,0,0.3-0.7-0.4-1c-0.7-0.4-0.7-0.4-1,0.3c0,0-0.3,0.7,0.4,1
			C165.8,48.7,165.8,48.7,166.1,48z M183.2,72.9l-0.7-0.4c-0.7-0.4-0.7-0.4-0.3,0.7C182.1,73.2,182.8,73.6,183.2,72.9z M173.4,59.4
			l0.7,0.4c-0.7-0.4-0.4-1-0.4-1C172.6,59,172.6,59,173.4,59.4z M192.6,87.1l0.3-0.7C192.6,87.1,192.2,86,192.6,87.1z M192.9,86.4
			l0.7,0.4l0.3-0.7l-0.7-0.4L192.9,86.4z M174.7,58.4l0.7,0.4c0.3-0.7,0.3-0.7-0.4-1L174.7,58.4z M167.1,46l1-0.3
			C167.4,45.3,167.4,45.3,167.1,46z M171.5,50c0.3-0.7-1.1-1.4-0.8-2.1l-1,0.3c-0.3,0.7,0.1,1.7,0.8,2.1
			C170.5,50.3,171.2,50.7,171.5,50z M165.4,40.1l-0.3,0.6c0,0-0.3,0.7,0.4,1.1C165.8,41.2,165.8,41.2,165.4,40.1z M169.2,45.5
			c-0.3,0.7-1,0.3-1,0.3C168.4,45.1,168.4,45.1,169.2,45.5z M194,80.3l-3.6-1.9l0.4,1C191.9,79.1,192.7,81.2,194,80.3z M164.7,39.7
			l-0.4-1C164,39.4,164,39.4,164.7,39.7z M186.7,73l0.3-0.6C186.3,72,186,72.7,186.7,73z M175.5,52.9c0.7,0.4,0.7,0.4,0.4,1
			C176.2,53.3,176.2,53.3,175.5,52.9z M171.7,47.6l0.3-0.7C172.1,47,171.3,46.6,171.7,47.6z M172.1,47l1-0.3
			C172.8,47.3,172.8,47.3,172.1,47z M194,80.3l1.5,0.7C195.1,80,194.7,78.9,194,80.3z M185.5,64.1l0.3-0.7l-0.7-0.4L185.5,64.1z
			 M192.3,74.3l0.7,0.4l-0.4-1L192.3,74.3z M184,61.6l0.3-0.7l-0.7-0.4C183.6,60.5,183.3,61.2,184,61.6z M198.6,74.3l0.7,0.4
			c0,0,0.3-0.7-0.4-1L198.6,74.3z M192.3,59.2l-0.7-0.4c-0.7-0.4,0,0-0.3,0.7C191.6,58.8,192.3,59.2,192.3,59.2z M195.9,61.1
			l0.3-0.6c-0.7-0.4-1,0.3-1.8-0.1c0,0-0.3,0.7,0.4,1C194.9,61.4,195.6,61.8,195.9,61.1z M191.8,56.4l0.3-0.7l-0.7-0.4L191.8,56.4z
			 M201.4,66.5l-1.4-0.8l0.4,1C200.7,66.1,201.4,66.5,201.4,66.5z M199.2,63.7c0.7,0.4,0.7,0.4,1-0.3c0,0,0.3-0.6-0.4-1
			c-0.7-0.4-1,0.3-1.7-0.1C198.5,63.3,198.1,64,199.2,63.7z M192.4,53.4l0.3-0.7C192,52.3,191.6,53,192.4,53.4z M198.6,59.2
			l-0.7-0.4l-0.3,0.7C197.6,59.5,198.3,59.8,198.6,59.2z M200.8,60.3c0.3-0.7,1-0.3,0.3-0.7l0.3-0.7c-0.7-0.4-0.7-0.4-1,0.3
			C201.1,59.6,201.1,59.6,200.8,60.3z M196.9,53.2l0.7,0.4c0,0,0.7,0.4,1-0.3C198,53,198,53,196.9,53.2z M199,52.7l-0.3,0.7
			C198.7,53.4,199.4,53.7,199,52.7z M200.5,55.1l0.7,0.4l0.3-0.7L200.5,55.1z"/>
		<path class="st0" d="M180.8,60.8l-0.3,0.7l-1.4-0.8C179.4,60,180.1,60.4,180.8,60.8z"/>
		<path class="st0" d="M114.9,175.6l-0.3,0.6l-0.7-0.4C113.8,175.9,114.2,175.2,114.9,175.6z"/>
	</g>
	<path class="st1" d="M60,185.8c13.5-57.3,79.8-54.3,118.7-133.5c0.3,1.1,0.4,2.2,0.5,3.3c-39.9,79.2-106.2,74.5-118,133.3
		C60.7,187.9,60.3,186.9,60,185.8z M127.3,137.9c20.1-17.5,35.5-38.8,47.4-63c0.2-0.4,0.7-0.6,1.2-0.3c0.5,0.2,0.6,0.8,0.4,1.2
		c-12,24.3-27.5,45.8-47.7,63.4c-29.3,27.3-39.3,48.7-47.1,74.6c-0.5-0.4-1-0.8-1.5-1.2C87.8,186.8,98,165.2,127.3,137.9z
		 M44.5,157.4c8.7-29.1,25.4-52.5,65.1-58.3c34.8-4.7,55.2-23.7,61.9-56.4c0.6,0.5,1.1,0.9,1.6,1.4c-6.9,32.8-27.7,52-63,56.8
		c-39.5,5.8-55.7,29.2-64.2,58.7C45.3,158.9,44.9,158.1,44.5,157.4z M109.9,224.3c4.7-8.3,10.7-19.6,16.9-32.1
		c12.5-25.1,26.3-55.1,34-75.7c0.2-0.4,0.7-0.6,1.2-0.4c0.5,0.2,0.7,0.7,0.5,1.2c-7.8,20.8-21.5,50.8-34.1,75.9
		c-6.3,12.5-12.2,23.9-17,32.1c-0.5,0.9-1,1.8-1.5,2.6c-0.6-0.2-1.2-0.3-1.9-0.5C108.7,226.4,109.3,225.3,109.9,224.3z M163.1,130
		c0-0.5,0.5-0.8,1-0.7c0.5,0.1,0.9,0.6,0.8,1c-3.7,39.6-20.6,72.3-40,103.5l-0.7,1.1l0,0c-0.4-0.4-0.9-0.9-1.4-1.3
		C142.5,202.2,159.5,169.6,163.1,130z M169.5,171.4c0-0.5,0.4-0.9,0.9-0.8c0.5,0,0.9,0.4,0.9,0.9c1.8,31.7-5.8,58.7-29.9,77
		c-0.6-0.4-1.1-0.7-1.7-1.1C163.7,229.5,171.2,203,169.5,171.4z M171.4,140.5c-0.2-0.5,0-0.9,0.4-1.1c0.5-0.1,1,0.1,1.2,0.6
		c22.6,52.4,21,92.5-12,116.2c-0.8-0.1-1.7-0.3-2.5-0.5C192,232.7,194.2,193.3,171.4,140.5z M189.1,146.7L189.1,146.7
		c-13.6-38.1-12.2-70.5,7.4-95.8c0.9-0.1,1.7-0.2,2.5-0.2c-17.2,21.3-21,47.7-13.4,78.6l5.1,17l5.3,12.2
		c15.9,38.6,17.5,64.6,10,82.7c-0.8,0.3-1.6,0.5-2.3,0.8C212.5,222.4,210.4,193.1,189.1,146.7z M211.3,155.7l-6.4-8.5
		c-25.6-36.7-21.6-67.6,4-94.1c0.5,0.3,1.1,0.6,1.6,1c-0.3,0.4-0.6,0.7-0.9,1c-3.9,1.9-6.1,3.9-5.2,5.9
		c-21.4,26.5-21.1,57.3,8.3,93.9c19.5,27,20,51.2,12.8,73.1c-1,1.1-2,2.2-3.1,3.3C230.9,208.5,231.5,183.7,211.3,155.7z"/>
</g>
</svg>
