<?xml version="1.0" encoding="utf-8"?>
<!-- Generator: Adobe Illustrator 27.4.0, SVG Export Plug-In . SVG Version: 6.00 Build 0)  -->
<svg version="1.1" id="Layer_1" xmlns="http://www.w3.org/2000/svg" xmlns:xlink="http://www.w3.org/1999/xlink" x="0px" y="0px"
	 viewBox="0 0 300 300" style="enable-background:new 0 0 300 300;" xml:space="preserve">
<style type="text/css">
	.st0{fill:#FFFFFF;}
	.st1{fill-rule:evenodd;clip-rule:evenodd;fill:#A5B48D;}
</style>
<g>
	<g>
		<path class="st0" d="M38.5,212.6c-4.8-3.9-5.9-7.4,0.7-10.4c12.9-8.4,26.6-18.1,40.2-28.8c0.1,0.3,0.4,0.8,1,1.5
			c0,0,0.4-1.2,2-0.9c0.4-1.2-1.2-1.6-1.2-1.6l-0.4-0.1c0.9-0.7,1.8-1.4,2.7-2.1l0.2,0c0-0.1,0-0.2,0-0.3c8.1-6.5,16.2-13.3,24-20.4
			c0,0,0,0,0,0s0,0,0-0.1c39.5-35.9,72.1-77.4,72.1-112.5c-0.2-2.2,0-4.1,0.7-5.8l0.2-0.1l0.8-0.3l-0.7-0.1c1.1-2.4,3.1-4.3,5.9-5.5
			l0.1,0c0,0,0,0-0.1,0c1.6-0.7,3.5-1.2,5.7-1.6c-0.1,0.7-0.2,1.4-0.3,2.1c-0.1-0.2-0.1-0.5,0-0.8l-0.8,2.5l0.7-0.3
			c-1,12.5,5,23.6,16,33.5c-0.2,0.6,0,0.7,1.3,0.9c-0.5-0.3-0.3-0.3,0.1,0c0,0.1,0,0.1,0,0.1l-0.4,1.2c0,0,0.8,0.1,1.4-0.2
			c0.5,0.5,1.1,0.9,1.7,1.4c4.8,4.7,9.2,9.5,13.2,14.1l-0.6-0.1c0,0-0.4,1.2,1.2,1.6l0.7,0.1c5.4,6.3,9.9,12.4,13.9,18.3l-0.1,0.4
			l0.4,0.1c12.6,19.4,17.9,37.3,17.5,54.1l-1.2-0.3c0.5,0.1,0.9,0.2,1.2,0.3c-0.3,13.8-4.4,26.9-11.5,39.3c-0.2-0.2-0.5-0.4-1-0.5
			l-0.4,1.2l0.8,0.1c-6.2,10.9-14.7,21.2-24.8,31.3c-11.7,10.4-23.6,18.4-35.8,23.9l0.1-0.5c-0.2,0-0.3,0-0.2-0.1
			C140.3,268.6,91.1,255.6,38.5,212.6z M160.7,250.8l0.4-1.2c-1.6-0.3-1.6-0.3-2,0.9L160.7,250.8z M142,249.7l2-0.9l-1.6-0.3
			C140.8,248.2,142,249.7,142,249.7z M152.6,249.2l-1.2-1.6l-0.4,1.2L152.6,249.2z M185.7,248.2l0.2-0.7l0.3-1
			c-1.8,0.8-2,0.9-0.6,1.2C185.7,248.2,185.7,248.2,185.7,248.2z M133.1,245.3c1.6,0.3,3.3,0.6,2.8,1.9
			C134.3,246.9,132.6,246.6,133.1,245.3z M127.4,246.9l0.4-1.2l-1.6-0.3C125.8,246.5,125.8,246.5,127.4,246.9z M181,246.8l0.4-1.2
			c0,0-0.4,1.2-2,0.9L181,246.8z M114,245.6l2-0.9l-3.2-0.6C112.9,244,112.4,245.3,114,245.6z M119.7,244l0.4-1.2c0,0-1.6-0.3-2,0.9
			L119.7,244z M111.6,242.4c1.6,0.3,1.2,1.6,1.2,1.6S111.2,243.7,111.6,242.4z M153.4,241.4c-2,0.9-2,0.9-0.4,1.2l1.6,0.3
			C155.1,241.6,153.4,241.4,153.4,241.4z M174.1,241.4l0.4-1.2l-1.6-0.3L174.1,241.4z M103.9,239.6l-1.6-0.3l-0.4,1.2
			C101.9,240.5,103.5,240.8,103.9,239.6z M107.6,239l0.4-1.2l-1.7-0.3L107.6,239z M200.6,234.6c-1.7-0.3-1.7-0.3-1.2-1.6l-3.3-0.6
			c-2,0.9-0.4,1.2-0.4,1.2c1.6,0.3,1.6,0.3,2.8,1.9C198.5,235.5,198.9,234.3,200.6,234.6z M75.9,235.4l0.4-1.2c0,0-1.6-0.3-2,0.9
			L75.9,235.4z M206.2,233.1l-1.2-1.6l-0.4,1.2L206.2,233.1z M104.3,233l0.4-1.3c-0.4,1.3-2,0.9-2,0.9L104.3,233z M69.9,227.6
			c-1.2-1.6-2.8-1.9-2.8-1.9c-1.6-0.3-1.6-0.3-2,0.9c0,0,1.6,0.3,1.2,1.6C66.7,226.9,68.3,227.2,69.9,227.6z M60.2,225.6l-0.4,1.2
			l1.7,0.3C61.8,225.9,60.2,225.6,60.2,225.6z M166.5,222.6l-1.6-0.3l-0.4,1.2C164.5,223.5,164.9,222.3,166.5,222.6z M153.6,220
			c0.4-1.3,0.4-1.3-1.2-1.6l-0.8,2.5C153.2,221.3,153.6,220,153.6,220z M91.5,219.8c-0.4,1.2-2,0.9-3.7,0.6
			C88.2,219.1,89.8,219.5,91.5,219.8z M74,220.4l0.4-1.2C74,220.4,72.8,218.8,74,220.4z M65.1,215.9l0.4-1.3c0,0-1.7-0.3-2,0.9
			L65.1,215.9z M91.5,214.5l-0.4,1.2C91.5,214.5,92.7,216,91.5,214.5z M158.4,215.6l0.4-1.2c-1.6-0.3-1.6-0.3-2,0.9L158.4,215.6z
			 M231.1,210l-1.7-0.3l-0.4,1.3C229.5,209.7,231.1,210,231.1,210z M130.9,210.2l-1.2-1.6l-0.4,1.2L130.9,210.2z M139.4,205.2l2-0.9
			C139.8,204,138.2,203.6,139.4,205.2z M214.1,204l-0.4,1.2C213.7,205.2,215.4,205.5,214.1,204z M133,204l-3.2-0.6
			C128.9,205.8,130.9,204.9,133,204z M189,201.6l2-0.9C190.6,202,190.6,202,189,201.6z M137.8,199.6l-3.2-0.6l-0.4,1.3
			C135.8,200.5,136.2,199.3,137.8,199.6z M79,200l-1.2-1.6l-0.4,1.3L79,200z M107.9,196.3l-2,0.9l3.2,0.6
			C109.5,196.7,107.9,196.3,107.9,196.3z M102.2,197.9l0.4-1.2c0,0-1.7-0.3-2,0.9L102.2,197.9z M225.2,196.8l-1.7-0.3l-0.4,1.3
			C224.7,198,224.7,198,225.2,196.8z M210.9,192.6l-0.4,1.3l1.6,0.3C212.2,194.2,212.6,193,210.9,192.6z M183.3,192.6l-1.6-0.3
			l-0.4,1.2C182.9,193.8,182.9,193.8,183.3,192.6z M200.4,193.3l0.4-1.2C199.2,191.7,198.8,192.9,200.4,193.3z M218.3,191.4
			l-1.6-0.3l-0.4,1.3C216.2,192.4,216.6,191.1,218.3,191.4z M66.9,189.6l-1.2-1.6c-1.6-0.3-1.6-0.3-2,0.9L66.9,189.6z M113.6,189.5
			l0.4-1.2c-1.6-0.3-2,0.9-2,0.9L113.6,189.5z M155.4,188.4l0.4-1.2C154.2,186.8,154.2,186.8,155.4,188.4z M138.3,187.7l-1.2-1.6
			l-1.7-0.3l1.2,1.6L138.3,187.7z M189.5,184.4c1.7,0.3,1.7,0.3,1.2,1.6C189.1,185.7,191.1,184.8,189.5,184.4z M173.7,185.3
			l-1.2-1.6L172,185L173.7,185.3z M155,184.3l0.4-1.3C153.8,182.7,153.4,184,155,184.3z M159.5,181.2l-1.7-0.3l-0.4,1.3
			C159.1,182.4,159.5,181.2,159.5,181.2z M123.8,179.5l0.4-1.2C122.6,177.9,122.2,179.1,123.8,179.5z M248.4,178.7l0.4-1.2
			c-1.6-0.3-2,0.9-2,0.9L248.4,178.7z M88.5,176.5l2-0.9l-1.7-0.3L88.5,176.5z M175.8,173.7l-1.6-0.3l-0.4,1.2
			C175.4,175,175.4,175,175.8,173.7z M95,172.5l-1.2-1.6l-0.4,1.2L95,172.5z M88.1,172.4l0.4-1.2l-1.6-0.3L88.1,172.4z M127.9,172.3
			l0.4-1.2C126.3,171.9,126.3,171.9,127.9,172.3z M220,170.4l2-0.9l-1.6-0.3L220,170.4z M217.6,167.3L216,167l-0.4,1.2
			C217.2,168.6,217.6,167.3,217.6,167.3z M213.9,167.9l0.4-1.2l-1.6-0.3L213.9,167.9z M97.9,163.7l-1.6-0.3c1.6,0.3,1.6,0.3,1.2,1.6
			l1.7,0.3C99.5,164,99.5,164,97.9,163.7z M226.2,162.3l-0.4,1.3l1.6,0.3C225.7,163.6,226.2,162.3,226.2,162.3z M149,160.4
			c-1.6-0.3-1.6-0.3-2,0.9l3.3,0.6C152.3,161.1,150.7,160.8,149,160.4z M221.7,160.1l-0.4,1.2l1.6,0.3
			C222.9,161.7,223.3,160.4,221.7,160.1z M209.5,160.4l0.4-1.2c0,0-0.4,1.2-2,0.9L209.5,160.4z M135.7,159.2l-4.9-1
			c1.6,0.3,1.2,1.6,2.8,1.9C133.6,160.1,134.1,158.8,135.7,159.2z M151.5,158.2l0.4-1.2l-1.7-0.3C150.3,156.7,149.9,158,151.5,158.2
			z M205.1,158.1l0.4-1.2C203.5,157.9,203.5,157.9,205.1,158.1z M177.5,158l0.4-1.2l-1.6-0.3l-0.4,1.2L177.5,158z M187.2,154.6
			l-0.4,1.2l1.6,0.3C186.8,155.9,187.2,154.6,187.2,154.6z M123.1,155.3l2-0.9l-1.6-0.3c-2.4-3.1-4.4-2.2-8.1-1.6l-0.4,1.2l1.2,1.6
			C119.5,156,121.5,155,123.1,155.3z M133.7,154.7l0.4-1.2C132.5,153.2,132.5,153.2,133.7,154.7z M110.2,152.8l0.4-1.3l-1.6-0.3
			C109,151.2,106.5,153.4,110.2,152.8z M129.6,151.3c0,0-1.6-0.3-1.2-1.6l-2,0.9l1.2,1.6C129.3,152.5,129.6,151.3,129.6,151.3z
			 M107.7,149.6c0,0,1.7,0.3,1.2,1.6C107.3,150.9,107.7,149.6,107.7,149.6z M183.6,149.9l0.4-1.2c0,0-0.4,1.2-2,0.9L183.6,149.9z
			 M194.2,149.3l2-0.9l-1.6-0.3L194.2,149.3z M251.8,147.4l-3.2-0.6c-0.4,1.2,1.2,1.6,1.2,1.6S251.4,148.6,251.8,147.4z
			 M157.3,146.1l-4.8-0.9c-0.4,1.2,1.2,1.6,2.8,1.9C156.9,147.3,158.5,147.6,157.3,146.1z M190.6,134l2-0.9l-1.6-0.3L190.6,134z
			 M144.8,131.6c1.6,0.3,1.6,0.3,1.2,1.6C146.4,131.9,144.8,131.6,144.8,131.6z M251.9,131.4l-0.4,1.2l1.6,0.3
			C253.5,131.7,251.9,131.4,251.9,131.4z M161.8,132.3l0.4-1.2l-1.6-0.3C160.6,130.7,160.2,132,161.8,132.3z M230,129.7l-0.4,1.2
			l1.6,0.3C231.2,131.3,231.7,130,230,129.7z M226.8,129.1l-1.2-1.6C225.2,128.8,225.2,128.8,226.8,129.1z M184.2,127.3l-1.6-0.3
			c-1.6-0.3-0.4,1.2-0.4,1.2S183.7,128.6,184.2,127.3z M137.9,126.3l0.4-1.2l-1.6-0.3C138.3,125,138.3,125,137.9,126.3z
			 M177.7,126.1l0.4-1.2c1.6,0.3,2-0.9,2-0.9c-1.7-0.3-1.7-0.3-3.7,0.6C176.5,124.5,178.1,124.8,177.7,126.1z M194.7,121.4l-1.2-1.6
			l-0.4,1.2L194.7,121.4z M187.9,121.4l0.4-1.2l-2,0.9L187.9,121.4z M202.5,119l0.4-1.3c-1.6-0.3-2,0.9-2,0.9L202.5,119z
			 M182.2,117.6l-1.2-1.6l-0.4,1.2L182.2,117.6z M187.5,117.4l-1.2-1.6C185.9,117,185.9,117,187.5,117.4z M246.4,111.6l-1.7-0.3
			l-0.4,1.2C244.3,112.5,244.7,111.3,246.4,111.6z M243.1,111l-1.6-0.3l-0.4,1.2C241.5,110.7,241.5,110.7,243.1,111z M236.6,109.7
			l-1.6-0.3l-0.4,1.2C236.2,111,236.6,109.7,236.6,109.7z M185.5,107.6c0.4-1.2-2.8-1.9-6.5-1.2c1.6,0.3,2.8,1.9,4.4,2.2
			C185.1,108.9,185.5,107.6,185.5,107.6z M229.8,104.4l0.4-1.3l-1.6-0.3L229.8,104.4z M153.9,104c0.4-1.2,0.8-2.5-1.2-1.6
			C152.7,102.5,154.3,102.8,153.9,104z M234.2,101.2l0.4-1.2c-0.4,1.2-2,0.9-2,0.9l-0.4,1.3C233.9,102.5,233.9,102.5,234.2,101.2z
			 M218.4,102.1l0.8-2.5c-1.6-0.3-1.6-0.3-2,0.9L218.4,102.1z M211.6,102.1l0.4-1.3l-1.6-0.3C209.9,101.8,209.9,101.8,211.6,102.1z
			 M225.7,100.9l0.4-1.3C224.5,99.3,226.1,99.6,225.7,100.9z M191.2,100.7l0.4-1.2l-1.6-0.3L191.2,100.7z M231,100.6l0.8-2.5l-2,0.9
			L231,100.6z M166.5,97.2l-1.6-0.3l-0.4,1.2C164.5,98.1,164.9,96.9,166.5,97.2z M231.9,98.1l2-0.9
			C233.5,98.4,231.9,98.1,231.9,98.1z M189.6,95.1l0.4-1.2l-2,0.9L189.6,95.1z M185.6,91.7l0.4-1.3C184.4,90.1,184,91.3,185.6,91.7z
			 M221.3,81.3c0-0.4-0.3-0.9-0.7-1.5c-1-0.2-0.9,0.4-0.8,1.2c0,0.5,0.1,0.9,0,1.3C220.8,82.6,221.3,82.1,221.3,81.3z M206,77
			l-1.7-0.3c1.2,1.6,1.2,1.6,2.8,1.9l1.7,0.3C207.6,77.3,207.6,77.3,206,77z M219,74.2l-1.6-0.3c-0.4,1.2-2,0.9-2,0.9l1.2,1.6
			C220.2,75.8,217.4,73.9,219,74.2z M197.1,72.5l-1.2-1.6l0.4-1.3c-2,0.9-2,0.9-2.4,2.2c0,0-2,0.9-0.4,1.2
			C193.4,73.2,195.1,73.5,197.1,72.5z M209.3,72.3l2-0.9C211.3,71.4,209.7,71,209.3,72.3z M214.9,70.7l-1.6-0.3c0,0-1.6-0.3-2,0.9
			C211.3,71.4,212.9,71.7,214.9,70.7z M204.4,71.3l0.4-1.2C203.2,69.7,203.2,69.7,204.4,71.3z M207.3,67.9l0.4-1.2
			C207.7,66.7,206.1,66.3,207.3,67.9z M209.7,65.7c0,0-1.6-0.3-2,0.9l3.3,0.6C211.3,66,209.7,65.7,209.7,65.7z M208.5,64.1l0.4-1.2
			C208.9,62.9,207.3,62.5,208.5,64.1z M183.4,61.8l0.8-2.5c-0.4,1.2-2,0.9-2,0.9C181.7,61.5,181.7,61.5,183.4,61.8z M209.2,61.6
			c-0.7-0.4-0.4-0.2-0.2,0l0.3,0.1C209.2,61.6,209.1,61.6,209.2,61.6z M202.5,61.6l0.4-1.2c0,0,0.4-1.2-1.2-1.6l-0.4,1.2L202.5,61.6
			z M183,57.8c-1.2-1.6-1.2-1.6-2.8-1.9l-0.4,1.2c1.6,0.3,1.2,1.6,1.2,1.6C182.6,59,183,57.8,183,57.8z M185.6,34.3l-1.2-1.6
			l-0.4,1.2L185.6,34.3z"/>
	</g>
	<path class="st1" d="M135.1,257.4c77-24.1,114.4-73.8,114-144.1c1.3,2.7,2.5,5.5,3.5,8.1c-2.4,64.8-38.1,111.8-108.9,136.2
		C140.9,257.7,138,257.6,135.1,257.4z M105.1,251.4c83.8-23.9,162.1-93,109.4-184.8c3.2,3.2,6.1,6.3,8.9,9.5
		c41.6,87.3-32.8,152.5-113.5,176.8C108.3,252.4,106.7,251.9,105.1,251.4z M69.5,234.7c75.8-2.3,153.9-46.6,147-106.4
		c-3.9-33.3-28.8-69.9-30.8-102.7c1-0.5,2.1-1,3.4-1.3c1.3,32,26.8,67.9,31,103.8c7.1,60.8-70.3,105.3-146.2,109.2
		C72.4,236.4,71,235.6,69.5,234.7z"/>
</g>
</svg>
