<?xml version="1.0" encoding="utf-8"?>
<!-- Generator: Adobe Illustrator 27.4.0, SVG Export Plug-In . SVG Version: 6.00 Build 0)  -->
<svg version="1.1" id="Layer_1" xmlns="http://www.w3.org/2000/svg" xmlns:xlink="http://www.w3.org/1999/xlink" x="0px" y="0px"
	 viewBox="0 0 300 300" style="enable-background:new 0 0 300 300;" xml:space="preserve">
<style type="text/css">
	.st0{fill:#A5B48D;}
	.st1{fill-rule:evenodd;clip-rule:evenodd;fill:#A5B48D;}
</style>
<g>
	<path class="st0" d="M98.4,220.2c1.1,0.5,0.9,2.5,1.2,0.5l0.2-2.2l0.3-2.2l-1-0.3c1.5-9.4,3.8-18.3,6.8-26.9
		c0.3,0.3,0.6,0.6,0.9,0.6l0.2-2.1c0-0.5,0-0.8-0.2-1c3.6-9.7,8.2-19.1,13.6-28c0.7,10.4,0.7,20.7-0.6,30.9c0,0.1,0,0.3-0.3,0.5
		c0,2-0.3,4-0.6,5.9c-0.3,2.2-2.5-0.8-1.5,1.7l-0.3,2.2c1.3,0.3,1.5-1.7,1.7-3.8c-2.1,19.3-7.9,38.4-17.7,57.2l0.1-1.3l0.2-2.2
		c-1.2-0.3-1.2-0.3-1.5,1.8c-1.1-0.5-0.4,1.7,0.7,2.4c-0.9,1.8-1.9,3.6-2.9,5.4C96.5,245.6,96.7,232.7,98.4,220.2z M104.4,222.2
		l-0.2,2.2l1.3,0.3C105.7,222.7,105.7,222.7,104.4,222.2z M43.9,220.6c-5.2-0.5-6.8-1.1-8.6-1.7c6.3-22.5,15.3-37.5,26.6-45.9
		c-0.1,1.7,0,3.2,0.9,3.4l1.3,0.5c1.5-1.8,0.2-2.2,0.2-2.2c-1.1-0.3-1.2-0.3-1.9-2.1c10-7,21.7-9.2,37.6-6.1
		c0.3,0.1,0.8,0.7,0.7,2.2l0.2-2.1v-0.2c2.4,0.5,4.7,1.1,7.1,1.9c-0.7,1.3-1.3,2.7-2.1,4c-0.5-0.7-0.3-2-0.3-2l-0.2,2.1l-0.1,1.1
		c-4.2,7.7-8.5,14.5-12.9,20.4c0-0.9-0.5-1.7-1.9-2.2c-0.2,2.2-0.2,2.2-0.5,4.3c0,0.3,0,0.7-0.1,1.1c-14,17.8-29.2,26.8-46,24l0-0.3
		l0,0l0,0.3C42.7,221.2,41.5,220.9,43.9,220.6z M109.9,219.6l-1.3-0.5l-0.2,2.2C109.6,221.7,109.9,219.6,109.9,219.6z M43.9,221.1
		l0.1-0.5L43.9,221.1z M43.9,221.1l0.3-2.1c0,0-1-0.3-0.3,1.6C43.7,220.6,43.8,220.8,43.9,221.1L43.9,221.1z M110.3,215.2l-1.2-0.3
		c1.2,0.3,1,2.5,1,2.5l1.3,0.3C111.6,215.7,111.6,215.7,110.3,215.2z M62.4,216.1c-0.2,2.1-1.3-0.5-1.5,1.7
		C62.2,218.1,62.2,218.1,62.4,216.1z M109.3,212.8l0.5-4.3c0,0-1.3-0.3-1.5,1.7C108.3,210.2,109.5,210.7,109.3,212.8z M67.4,204.4
		l-1.3-0.3l-0.2,2.1C66,206.1,67.2,206.6,67.4,204.4z M114.1,203.4c0,0,1.3,0.3,1.1,2.5C114,205.5,114.1,203.4,114.1,203.4z
		 M109,203.9l0.2-2.2c0,0-0.2,2.2-1.5,1.7L109,203.9z M114.1,203.4l-1.2-0.5C114.4,201.1,114.1,203.4,114.1,203.4z M64,201.1
		c-1.3-0.3-1-2.5-2.3-2.9c-0.3,2.1-0.3,2.1,0.8,4.6C62.5,202.8,62.8,200.7,64,201.1z M81.7,202.5l0.3-2.2c0.2-2.2,0.2-2.2-1-2.5
		l-0.3,2.2C80.4,202,80.4,202,81.7,202.5z M114.6,199l-1.3-0.3C114.9,197,114.9,197,114.6,199z M60.8,195.7c1.2,0.3,1,2.5,1,2.5
		S60.5,197.9,60.8,195.7z M109.7,197.5l-1-2.5l-0.2,2.1L109.7,197.5z M67.4,193.4c1.2,0.3,1,2.5,1,2.5S67.1,195.5,67.4,193.4z
		 M90.5,192l-1.2-0.3C90.7,189.9,90.5,192,90.5,192z M119.4,190.1c0,0.1,0-0.2,0.1-0.5l0-0.1l-1.2-0.3l-0.2,2.1
		C119.1,191.6,119.2,191.8,119.4,190.1z M119.7,189.7l-0.2-0.1v0.1H119.7z M118.2,189.2l0.2-2.2l0.3-2.1l-1.3-0.5
		c-1.5,1.7-1.5,1.7-0.4,4.3L118.2,189.2z M85.8,188.3l0.3-2.1c0,0-0.3,2.1-1.5,1.7L85.8,188.3z M109.8,184.3l-0.2,2.1l4.9,1.6
		C113.5,185.5,109.8,184.3,109.8,184.3z M94.1,182.2c0,0-0.3,2.2-1.5,1.7l2.5,0.8C93.9,184.3,94.1,182.2,94.1,182.2z M59.4,184.3
		l-1.3-0.3C59.7,182.1,59.7,182.1,59.4,184.3z M90.2,183.2l-1-2.6c-0.2,2.2-0.2,2.2-1.5,1.8L90.2,183.2z M86.5,181.9l-1.2-0.3
		C86.7,179.8,86.7,179.8,86.5,181.9z M75.4,178.4l-0.2,2.1l1.2,0.5C76.4,180.9,76.6,178.7,75.4,178.4z M80.8,175.7
		c0,0,0.2-2.2,0.4-4.3L80,171c-0.3,2.2-1.7,4-3.2,5.7c1,2.4,2.5,0.7,2.5,0.7C80.6,177.9,80.6,177.9,80.8,175.7z M90.9,176.7l0.2-2.1
		C90.9,176.7,89.9,174.3,90.9,176.7z M117.1,175.6l1.5-1.7l-2.5-0.8C117.4,173.5,117.1,175.6,117.1,175.6z M76.3,169.8
		c-1.5,1.7-2.5-0.8-2.7,1.3C74.6,173.7,75.9,174.1,76.3,169.8z M73.3,172.5c0.1-0.3,0.3-0.6,0.4-1.3c-1.2,1.4-1.3,0.3-1.3,0.9
		c0,0.2,0,0.5-0.1,0.8C72.2,172.9,72.8,173.2,73.3,172.5z M210.3,117.6v0.2l0.9,2.2l0.2-2.2L210.3,117.6c3.6-3.8,7.6-6.8,12-9.4
		c-3.8,30-14.7,50.5-32,62.4C192.6,147.2,199.2,129.4,210.3,117.6z M209.5,148.1l0.3-2.2l-1.2-0.5
		C208.5,145.5,209.7,145.9,209.5,148.1z M112.8,145.6C89.2,142.2,67.9,126,49,95.5c4.5-1.6,9-2.5,13.3-3v0.2l-0.1,1.3
		c1.1,0.3,1.4-1.1,1.5-1.6c9.6-0.6,18.7,1.9,29.6,9.4h0l1.2,0.3l0,0.5c1.3,0.9,2.7,2,4,3l-0.5-0.2c0,0-0.2,2.2,1,2.5
		c0,0,0.7,0.3,1.1-1c10.2,7.3,19.7,19.4,28.5,34.7l-0.2,0.3l-1.3,1.4l2.5,0.8c-0.9-0.3-1-1.6-1-2c0.8,0.9,1.6,2.2,2.3,3.4
		C124.6,146.5,118.6,146.4,112.8,145.6z M112.8,145.6l0.2-2.2C112.9,143.4,111.7,143.1,112.8,145.6z M123.1,144.5l0.2-2.2l-1.2-0.3
		l-0.3,2.1L123.1,144.5z M204,139.7l-1.2-0.5l-0.3,2.2C202.5,141.5,203.8,141.8,204,139.7z M106.5,132.5c-1.2-0.3-1.2-0.3-1-2.4
		c-0.2,2.1-0.2,2.1-0.5,4.3l-0.2,2.1l1.3,0.5C106.2,134.7,106.2,134.7,106.5,132.5z M121.7,133l-1.5,1.7l2.5,0.8
		C121.5,135.2,121.5,135.2,121.7,133z M214.2,127.6c0,0,1.3,0.5,1.1,2.5C214,129.7,214.2,127.6,214.2,127.6z M105.5,130.1l-1.3-0.5
		C105.7,127.9,104.2,129.7,105.5,130.1z M214.2,127.6l-1.2-0.3C214.5,125.4,214.2,127.6,214.2,127.6z M84,127.5l0.3-2.1l-1.5,1.7
		L84,127.5z M100.3,119.6l-1.3-0.5C99,119.1,98.7,121.2,100.3,119.6z M98,116.6l-1.3-0.5l-0.2,2.1l2.5,0.8
		C99.2,117.1,99.2,117.1,98,116.6z M71.1,116.8l-1.3-0.3c0,0,0.3-2.2-1.2-0.3c0,0,1.2,0.3,1,2.5l1.2,0.3
		C71.1,116.8,72.4,117.2,71.1,116.8z M94.3,115.4l1.5-1.7l0.2-2.2c-1.3-0.3-1.5,1.7-1.5,1.7C93.2,112.9,93.2,112.9,94.3,115.4z
		 M101.1,111l-1.2-0.3l-0.3,2.2C99.9,110.6,101.1,111,101.1,111z M131.6,69.5l1-1.1c0,0,0.2-2.2-1-2.5l-0.3,2.1l0,0.8
		c-1.3-2.8-2.5-5.7-3.6-8.9c8.2-4.3,16.3-5.4,24.2-3.2l-0.1,0.3l0,0.1c1,2.5,1,2.5,2.2,2.9l0.3-2.4c-0.3-0.1-0.6-0.2-0.8-0.3
		c0,0.2,0.3,0.3,0.8,0.5v0.1v-0.3c11.1,3.8,21.8,14.2,32.2,31.8c0,0.5,0,0.8,0,0.8l0.1-0.2l0.1-0.2c3.5,5.9,6.9,12.6,10.4,20.1
		C169.6,112.5,146.5,102.6,131.6,69.5z M83.4,109.8l-3.7-1.1C80.7,111.1,82,111.5,83.4,109.8z M83.4,109.8l1.5-1.7
		C84.6,110.1,84.6,110.1,83.4,109.8z M89.8,109.6l0.3-2.1l-1.3-0.5C90.1,107.5,89.8,109.6,89.8,109.6z M78.7,106.1l1,2.5
		C78.5,108.1,78.7,106.1,78.7,106.1z M180.9,105.9l1.5-1.7l-1.2-0.5c-1.3-0.3-1.3-0.3-1.5,1.7L180.9,105.9z M94.2,104.4l0.1-1.6
		l0-0.2c-0.4-0.3-0.8-0.5-1.2-0.8h0l0.1,0.3L94.2,104.4z M57.3,103.5l1.5-1.7l-1.2-0.5L57.3,103.5z M91.9,101.5l-1.2-0.3l-0.3,2.1
		C91.7,103.6,91.7,103.6,91.9,101.5z M83.1,100.8c0,0,1.3,0.3,0.3-2.2c0,0-0.3,2.2-1.5,1.8c0,0-1.3-0.5-0.2,2.1
		C81.9,100.5,81.9,100.5,83.1,100.8z M93.2,101.9L93.2,101.9L93.2,101.9L93.2,101.9z M76.7,101l0.2-2.2l-1.2-0.3
		C75.4,100.5,76.7,101,76.7,101z M73,99.7l1.5-1.7l-1.2-0.3L73,99.7z M152,89.9l-1.3-0.3c-0.2,2.2,1,2.5,1,2.5l1.3,0.3
		C153.2,90.3,152,89.9,152,89.9z M146,85.9l-1.3-0.5C146,85.9,145.7,87.9,146,85.9z M144,80.8l-1.2-0.5l-0.3,2.1
		c1.1,2.6,2.3,3,2.3,3C145,83.2,145.2,81.2,144,80.8z M147.2,75.2c-1.5,1.7-0.3,2.1-0.5,4.1c1.3,0.5,1,2.6,1.3,0.5
		C146.9,77.3,148.4,75.6,147.2,75.2z M138.1,76.6l-0.3,2.1l1.3,0.5C139.3,77,138.1,76.6,138.1,76.6z M156,75.8l0.2-2.2l-1.2-0.3
		L156,75.8z M138.5,72.4l0.3-2.2C140,70.6,138.8,70.2,138.5,72.4z M136,71.6l0.3-2.2l-1.3-0.3C136.3,69.5,136,71.6,136,71.6z
		 M158.2,67.7l-1.1-2.5l-0.2,2.2l-0.2,2.2C158,69.8,158.2,67.7,158.2,67.7z M139.7,61.8l-1.3-0.5l-0.3,2.2
		C138.2,63.5,139.4,63.9,139.7,61.8z M142.1,62.5l1.5-1.7l0.3-2.1c-1.2-0.5-1.2-0.5-1.5,1.7L142.1,62.5z"/>
	<path class="st1" d="M100.9,173.5c-0.5-1.6-0.1-3.7,0.8-4.5c66.9-63,123.3-81.3,171.3-63.4c1.1,0.5,1.7,2.2,1.5,4
		c-0.2,1.8-1.3,3-2.3,2.5c-46.7-17.5-102.1,0.2-168.6,62.7C102.6,175.6,101.5,175.1,100.9,173.5z"/>
</g>
</svg>
